<svg width="63" height="66" viewBox="0 0 63 66" fill="none" xmlns="http://www.w3.org/2000/svg">
<g id="Group 1460">
<path id="Vector" d="M39.6612 2.98295C41.5674 4.12481 43.3511 5.5332 44.9742 7.17798L45.6287 7.82547C47.1722 7.69697 48.7196 8.0007 50.1456 8.71207C51.5716 9.42344 52.8362 10.5225 53.8369 11.9202C51.8965 4.56065 46.1369 0.493293 39.6612 2.98295ZM44.1503 4.10467C43.7884 4.10467 43.7268 3.41158 44.0887 3.35686C45.3571 3.17094 46.6361 3.58734 47.6461 4.51505C47.8001 4.66096 47.7077 5.06223 47.4844 4.94367C46.441 4.36863 45.301 4.08175 44.1503 4.10467Z" fill="#8CC5DF"/>
<path id="Vector_2" d="M50.888 13.6164C52.3529 15.4556 53.5709 17.5501 54.4993 19.8269C55.7493 19.6358 57.0197 19.8224 58.1924 20.3693C59.365 20.9162 60.4018 21.8057 61.2061 22.9549C61.0422 21.8896 60.7437 20.8597 60.3206 19.8998C59.4027 17.9116 58.0319 16.2685 56.3643 15.1577C54.6967 14.0468 52.7993 13.5128 50.888 13.6164ZM53.5676 16.0422C53.121 16.0422 53.1595 15.2762 53.5676 15.2397C54.1553 15.1914 54.7448 15.2934 55.2962 15.5389C55.8476 15.7843 56.3479 16.1675 56.7631 16.6624C56.7968 16.7118 56.8148 16.7736 56.8142 16.8371C56.8135 16.9006 56.7943 16.9619 56.7597 17.0104C56.7251 17.0589 56.6773 17.0917 56.6246 17.1031C56.5718 17.1144 56.5174 17.1037 56.4705 17.0728C55.6214 16.3691 54.6036 16.0078 53.5676 16.0422Z" fill="#8CC5DF"/>
<path id="Vector_3" d="M46.7305 8.89258C47.8855 10.0781 49.0405 11.3458 50.1801 12.7137C51.4722 12.4795 52.7894 12.5227 54.0686 12.8414C54.0722 12.802 54.0722 12.7622 54.0686 12.7228C54.0336 12.7519 53.992 12.7674 53.9493 12.7674C53.9066 12.7674 53.8649 12.7519 53.8299 12.7228C51.5045 10.5067 49.5025 9.25736 46.7305 8.89258Z" fill="#B2D7E8"/>
<path id="Vector_4" d="M49.8715 38.5496C49.8715 38.6316 49.8099 38.7046 49.7791 38.7958C47.9423 43.3997 45.7839 47.8137 43.3265 51.9919L42.9954 52.5391C51.0804 50.6787 56.378 42.2886 59.5504 33.7891C60.7157 30.9467 61.3237 27.8292 61.3291 24.6695C61.3291 24.6695 61.2829 24.6695 61.2675 24.5965C60.3813 23.0557 59.0859 21.9098 57.5869 21.3408C58.3569 23.3289 57.1403 27.3689 56.6629 28.9192C55.4376 32.8513 53.1922 36.2227 50.2488 38.5496C50.1923 38.5917 50.1269 38.614 50.0601 38.614C49.9934 38.614 49.928 38.5917 49.8715 38.5496Z" fill="#B2D7E8"/>
<path id="Vector_5" d="M24.4152 26.0283C24.1347 26.0843 23.8704 26.222 23.6459 26.4289C23.4215 26.6358 23.244 26.9056 23.1293 27.2138C23.0031 27.544 22.9629 27.9111 23.0136 28.2684C23.0644 28.6258 23.2038 28.9571 23.4142 29.2202C23.6484 29.4821 23.9262 29.6831 24.2299 29.8103C24.5336 29.9375 24.8563 29.9881 25.1775 29.9589C25.5418 29.9245 25.8958 29.7985 26.2158 29.5893C26.5357 29.3802 26.8144 29.0927 27.0332 28.7459L26.7021 28.3994C25.986 27.6334 25.2314 26.8308 24.4768 25.9918L24.4152 26.0283Z" fill="#B2D7E8"/>
<path id="Vector_6" d="M18.3563 40.7016C18.0959 40.9905 17.8751 41.3258 17.702 41.6954C17.6558 41.8504 17.6096 41.8048 17.702 41.978C17.8395 42.1124 17.9924 42.2229 18.1562 42.3063L18.8644 42.8077C19.2185 42.1969 19.5495 41.5404 19.9268 40.9295C19.5419 40.6743 19.1569 40.4098 18.7259 40.0999C18.6104 40.3004 18.4795 40.4919 18.3563 40.7016Z" fill="#B2D7E8"/>
<path id="Vector_7" d="M10.7869 26.0376C5.33525 29.959 0.438042 35.0387 3.42565 39.717C6.53528 44.4057 10.2331 48.5023 14.3905 51.8644L15.1605 50.5876C15.0886 50.5165 15.0392 50.4188 15.0201 50.3102C15.001 50.2017 15.0133 50.0887 15.0552 49.9895C15.0971 49.8903 15.166 49.8108 15.2508 49.7638C15.3356 49.7167 15.4313 49.705 15.5224 49.7304C16.7869 50.0983 18.1079 50.0983 19.3724 49.7304C19.4391 49.7154 19.5082 49.7318 19.5649 49.776L19.3031 48.2074C18.2536 48.4851 17.1689 48.5223 16.1076 48.3169C15.7534 48.253 15.8535 47.5508 16.2154 47.5782C17.362 47.7238 18.5184 47.7238 19.665 47.5782C19.7079 47.5646 19.753 47.5646 19.7959 47.5782L19.1491 45.9913C16.4002 47.1951 13.3048 46.1373 10.2787 43.4287C8.49227 41.8328 6.42866 39.4799 6.30546 36.6528C6.18226 33.8258 8.35366 31.3452 9.98607 29.5122C10.0462 29.441 10.1249 29.396 10.2094 29.3845C10.1132 28.8732 10.1483 28.3394 10.3102 27.8519C10.4721 27.3644 10.7534 26.9453 11.118 26.6486L10.7869 26.0376Z" fill="#65B1D2"/>
<path id="Vector_8" d="M10.4247 30.3418C8.71527 32.5032 6.92886 34.9016 7.65267 38.2303C8.13007 40.4099 10.7866 42.5986 12.2727 43.6109C14.2593 44.9697 16.4846 46.0914 18.7561 45.1703C20.1127 44.4595 21.3433 43.4507 22.3828 42.1973C21.7154 41.976 21.07 41.6702 20.4578 41.2854C20.1461 42.1312 19.7506 42.9303 19.2797 43.6656C19.2274 43.7633 19.1446 43.8325 19.0494 43.8581C18.9542 43.8837 18.8543 43.8637 18.7715 43.8024C18.2787 43.4649 17.7628 43.1549 17.2931 42.7901C17.0159 42.5621 16.7618 42.2976 16.7926 41.8781C16.8234 41.4586 17.193 40.9662 17.424 40.647C17.655 40.3278 17.8629 39.9812 18.0785 39.6529C14.8907 37.1359 11.4334 33.406 10.4247 30.3418Z" fill="#B2D7E8"/>
<path id="Vector_9" d="M19.8106 32.0107C18.7557 30.9438 11.3406 22.8911 11.4253 29.3569C11.4253 32.029 14.8749 34.9199 16.5381 36.5158C18.2013 38.1118 20.7577 40.8659 22.9907 41.0757C23.0707 41.0814 23.1482 41.1102 23.2166 41.1595C23.285 41.2087 23.3423 41.277 23.3834 41.3584C23.377 41.2925 23.3875 41.226 23.4137 41.1674C23.4398 41.1088 23.4802 41.0609 23.5297 41.0301C27.8803 38.2942 21.3968 33.6067 19.8106 32.0107Z" fill="#65B1D2"/>
<path id="Vector_10" d="M10.7866 26.0375L11.0946 26.6485C11.6845 26.1964 12.3439 25.8865 13.035 25.7366C14.8214 25.2806 15.9995 26.7124 17.3239 27.9891C19.6339 30.2234 21.9439 32.5489 24.1461 34.9474C26.6872 37.6833 27.5727 40.1638 23.7303 41.6685C23.6825 41.6912 23.6296 41.6936 23.5805 41.6753C23.5314 41.657 23.4891 41.6192 23.4608 41.5682C23.4841 41.7154 23.4587 41.8675 23.3899 41.9931C23.3211 42.1187 23.2142 42.2082 23.0912 42.2431C22.1228 43.9547 20.7407 45.2801 19.1257 46.046L19.7725 47.6693C19.8052 47.6939 19.8312 47.7292 19.8473 47.7709C19.8634 47.8126 19.8689 47.859 19.8632 47.9043C19.8575 47.9497 19.8408 47.9921 19.8151 48.0265C19.7895 48.0608 19.756 48.0856 19.7186 48.0979L19.2797 48.2256L19.5107 49.7485C19.5541 49.7769 19.5902 49.8186 19.6153 49.8691C19.6405 49.9196 19.6537 49.9772 19.6537 50.0358C19.6537 50.0945 19.6405 50.152 19.6153 50.2025C19.5902 50.2531 19.5541 50.2947 19.5107 50.3231C18.1538 50.9648 16.6593 51.0766 15.2449 50.6423C15.2014 50.6283 15.1599 50.6068 15.1217 50.5784L14.3517 51.8552C16.4538 53.6335 18.6406 55.2568 20.8351 56.798C20.8732 56.4842 20.9457 56.1776 21.0507 55.886C22.3058 52.375 26.1328 48.5356 28.3273 45.8545C30.9758 42.5764 33.8644 39.5826 36.959 36.9081C33.5413 34.842 30.3653 32.2577 27.5111 29.2203C26.7411 31.4728 23.7226 31.5275 22.4983 29.7674C22.2002 29.3264 22.0126 28.7952 21.9568 28.2342C21.901 27.6731 21.9793 27.1048 22.1826 26.5938C22.4536 25.8467 22.9629 25.2567 23.5994 24.9523C22.3418 23.5158 21.2282 21.9123 20.2807 20.1736C18.348 21.2862 14.4441 23.3928 10.7866 26.0375Z" fill="#65B1D2"/>
<path id="Vector_11" d="M23.1681 54.9649C22.8755 55.4117 22.5752 55.8768 22.2903 56.2963C22.6485 57.4878 23.3826 58.4684 24.3385 59.0322C25.3941 59.877 26.4893 60.6504 27.6187 61.3486C28.5042 61.987 30.5601 63.9659 31.5611 64.1848C33.7633 64.659 35.85 60.7467 37.1205 59.0322C39.2841 56.0977 41.2876 53.003 43.1188 49.7667C44.4509 47.4138 45.6983 44.9971 46.8379 42.471C48.0776 39.808 50.2029 36.1511 50.5186 32.8589C47.6553 35.4121 44.395 37.2715 40.9243 38.3307C40.9056 38.3977 40.8754 38.4593 40.8356 38.5118C40.7958 38.5643 40.7472 38.6064 40.6929 38.6356C40.6387 38.6647 40.5799 38.6802 40.5203 38.6811C40.4608 38.682 40.4017 38.6682 40.3468 38.6407C39.4151 38.2395 38.5142 37.7288 37.621 37.2728C33.9173 41.4313 30.1366 45.4805 26.7332 49.9764C25.6706 51.3991 23.7764 53.2869 23.1681 54.9649ZM33.0472 59.9533C32.9982 60.0053 32.9337 60.0321 32.868 60.0278C32.8023 60.0236 32.7408 59.9886 32.6969 59.9305C32.6529 59.8725 32.6303 59.7961 32.6339 59.7183C32.6375 59.6405 32.6671 59.5676 32.7161 59.5156C33.4148 58.6494 34.0704 57.7359 34.6796 56.7797C34.9491 56.3602 35.5343 56.7797 35.2802 57.2265C34.6731 58.2904 33.918 59.2247 33.0472 59.9898L33.0472 59.9533ZM32.847 62.2879C32.616 62.4612 32.3542 62.0143 32.5775 61.8228C33.6063 60.8954 34.4546 59.7166 35.0646 58.3665C35.2802 57.9105 35.8346 58.3665 35.6421 58.8042C34.9853 60.246 34.0217 61.4595 32.847 62.3244L32.847 62.2879Z" fill="#65B1D2"/>
<path id="Vector_12" d="M24.7389 6.4211C22.2749 8.0444 20.0034 9.5309 19.8186 13.5253C19.68 16.4345 21.0429 18.9971 22.5059 21.1949C27.3219 28.2967 33.5278 33.9 40.5856 37.519C44.1177 36.2659 47.3816 34.1293 50.1567 31.2539C51.6967 29.6306 53.4677 27.5513 53.9605 25.089C54.5765 22.0886 53.1289 19.6628 51.7429 17.5106C47.5849 11.0539 40.6934 2.38111 33.2628 2.83709C30.1905 2.983 27.3954 4.67014 24.7389 6.4211ZM21.2662 12.4948C21.2568 11.8035 21.3761 11.1182 21.6156 10.4877C21.8552 9.85726 22.2091 9.29704 22.6522 8.84693C22.7063 8.79009 22.7773 8.76104 22.8495 8.76617C22.9217 8.7713 22.9892 8.81019 23.0372 8.87429C23.0852 8.93838 23.1097 9.02243 23.1054 9.10794C23.1011 9.19345 23.0682 9.27343 23.0141 9.33027C22.664 9.74477 22.388 10.2387 22.2028 10.7824C22.0176 11.3261 21.9269 11.9086 21.9361 12.4948C21.9239 12.5897 21.8834 12.6762 21.822 12.7388C21.7605 12.8013 21.6822 12.8357 21.6012 12.8357C21.5201 12.8357 21.4418 12.8013 21.3803 12.7388C21.3189 12.6762 21.2784 12.5897 21.2662 12.4948ZM22.8062 12.6225C22.5906 13.0602 22.0362 12.6225 22.2364 12.1938C22.4366 11.7652 22.8832 11.0539 23.2528 10.5249C23.2855 10.4633 23.3375 10.4195 23.3974 10.4032C23.4574 10.387 23.5203 10.3996 23.5724 10.4383C23.6244 10.477 23.6614 10.5386 23.6751 10.6096C23.6888 10.6806 23.6782 10.7551 23.6455 10.8168C23.3956 11.4358 23.118 12.0385 22.8139 12.6225L22.8062 12.6225Z" fill="#65B1D2"/>
<path id="Vector_13" d="M6.76687 27.9161C4.26436 30.0227 0.0755601 32.7039 0.768561 37.0357C1.53856 41.6503 6.72838 46.2921 9.53889 49.1375C13.0043 52.6532 16.8656 55.5812 21.0119 57.8376C21.3971 58.4041 21.8637 58.8858 22.3902 59.2603C24.2459 60.8288 26.348 62.1056 28.2961 63.5009C29.2894 64.2213 30.5368 65.571 31.6995 65.8629C33.6323 66.3736 34.7796 64.1028 36.0116 62.6072C38.2594 59.7675 40.3553 56.7643 42.2871 53.6152C42.3449 53.6742 42.4123 53.7183 42.4852 53.745C42.558 53.7717 42.6348 53.7803 42.7106 53.7702C52.4588 52.3385 60.1203 39.9449 62.1377 29.1472C63.5006 21.9336 60.2435 14.8385 54.7149 13.0146C53.9449 4.00443 46.2449 -1.22112 39.1763 1.83396C39.0643 1.88174 38.9688 1.97206 38.9048 2.09083C38.8407 2.20961 38.8116 2.35017 38.8221 2.49057C37.2326 1.67409 35.5188 1.25199 33.7862 1.2503C27.3413 1.30502 16.8462 7.2419 18.8559 16.4436C19.0404 17.2935 19.2985 18.1187 19.6259 18.9059C15.1358 21.4812 10.8345 24.495 6.76687 27.9161ZM3.42507 39.7078C0.437457 35.0385 5.33467 29.9589 10.7863 26.0283C14.4438 23.3836 18.3477 21.277 20.2573 20.1644C21.2206 21.9294 22.3551 23.5546 23.6376 25.0069C23.001 25.3114 22.4918 25.9014 22.2208 26.6485C22.0174 27.1594 21.9392 27.7278 21.995 28.2888C22.0508 28.8499 22.2384 29.3811 22.5365 29.8221C23.7608 31.5822 26.7946 31.5275 27.5492 29.2749C30.4035 32.3123 33.5795 34.8967 36.9972 36.9628C33.9026 39.6372 31.014 42.631 28.3654 45.9091C26.1709 48.5538 22.344 52.3932 21.0889 55.9407C20.9839 56.2323 20.9114 56.5389 20.8733 56.8527C18.6788 55.3115 16.492 53.6882 14.3899 51.9098C10.2292 48.5312 6.53113 44.4159 3.42507 39.7078ZM19.8184 13.5253C20.0032 9.53092 22.2747 8.05354 24.7387 6.42113C27.3952 4.67016 30.1903 2.99215 33.2857 2.77328C40.6932 2.31729 47.5847 10.9809 51.7658 17.4468C53.1518 19.599 54.5994 22.0066 53.9834 25.0252C53.4906 27.4875 51.6734 29.585 50.1796 31.19C47.4066 34.0753 44.1426 36.2213 40.6085 37.4826C33.5481 33.8855 27.3345 28.3043 22.5057 21.2223C21.0504 19.0427 19.6798 16.4345 19.8184 13.5253ZM23.1294 27.2048C23.2441 26.8965 23.4216 26.6267 23.6461 26.4198C23.8705 26.2129 24.1348 26.0752 24.4153 26.0192L24.4769 26.0192C25.2469 26.8582 26.0169 27.6607 26.7022 28.4268L27.0333 28.7733C26.8145 29.1201 26.5359 29.4076 26.2159 29.6167C25.8959 29.8259 25.5419 29.9519 25.1776 29.9862C24.8565 30.0155 24.5337 29.9649 24.23 29.8377C23.9264 29.7105 23.6485 29.5095 23.4143 29.2476C23.1992 28.9822 23.0569 28.6459 23.006 28.283C22.9552 27.92 22.9982 27.5473 23.1294 27.2139L23.1294 27.2048ZM44.9744 7.14158C43.3513 5.49679 41.5676 4.0884 39.6614 2.94655C46.1371 0.50249 51.8967 4.56985 53.8371 11.8838C52.8364 10.4861 51.5718 9.38704 50.1458 8.67567C48.7198 7.9643 47.1724 7.66057 45.6289 7.78907L44.9744 7.14158ZM22.2901 56.3876C22.575 55.9407 22.8753 55.4756 23.1679 55.0561C23.7762 53.3416 25.6858 51.4539 26.733 50.0677C30.1364 45.5535 33.9171 41.5226 37.6209 37.364C38.5141 37.8656 39.415 38.3307 40.3467 38.732C40.4015 38.7595 40.4606 38.7732 40.5202 38.7723C40.5798 38.7714 40.6385 38.7559 40.6928 38.7268C40.747 38.6977 40.7956 38.6555 40.8354 38.6031C40.8753 38.5506 40.9055 38.4889 40.9242 38.4219C44.3949 37.3628 47.6552 35.5034 50.5184 32.9501C50.2027 36.2423 48.0775 39.8993 46.8378 42.5622C45.6982 45.0428 44.4508 47.4594 43.1187 49.8579C41.2874 53.0942 39.2839 56.189 37.1204 59.1235C35.8499 60.8379 33.7632 64.7503 31.5609 64.276C30.5599 64.0572 28.4809 62.0782 27.6185 61.4398C26.4884 60.7298 25.3932 59.9442 24.3383 59.087C23.3795 58.5189 22.6449 57.5311 22.2901 56.3329L22.2901 56.3876ZM50.1796 12.7137C49.0631 11.3457 47.8696 10.0781 46.73 8.89255C49.502 9.25734 51.504 10.5067 53.8063 12.7319C53.8413 12.761 53.8829 12.7765 53.9257 12.7765C53.9684 12.7765 54.01 12.761 54.045 12.7319C54.0486 12.7713 54.0486 12.8111 54.045 12.8505C52.7737 12.5321 51.4646 12.4857 50.1796 12.7137ZM54.4993 19.827C53.5709 17.5502 52.3529 15.4557 50.888 13.6165C52.7993 13.5129 54.6967 14.0469 56.3643 15.1578C58.0319 16.2686 59.4027 17.9117 60.3205 19.8999C60.7357 20.8613 61.0264 21.8912 61.1829 22.955C60.3808 21.81 59.3479 20.9231 58.1796 20.3764C57.0114 19.8296 55.7456 19.6407 54.4993 19.827ZM54.9305 20.9943C55.5399 20.931 56.1536 20.9648 56.7554 21.0946C57.7641 23.566 55.9854 28.3903 54.9844 30.6337C53.8758 33.103 52.3505 35.2759 50.503 37.0175C51.2318 35.4468 51.6157 33.6845 51.6195 31.8922C54.4069 28.901 56.1317 25.162 54.9305 20.9943ZM49.7869 38.7593C49.7869 38.6681 49.8485 38.5952 49.8793 38.5131C49.9358 38.5552 50.0012 38.5775 50.0679 38.5775C50.1347 38.5775 50.2001 38.5552 50.2566 38.5131C53.208 36.2053 55.4668 32.8501 56.7092 28.9284C57.1866 27.378 58.4032 23.338 57.6332 21.35C59.1322 21.919 60.4277 23.0649 61.3138 24.6057C61.3138 24.6057 61.3138 24.6513 61.3754 24.6786C61.3701 27.8384 60.762 30.9559 59.5967 33.7983C56.3858 42.2977 51.1267 50.6878 43.0032 52.5117L43.3343 51.9646C45.7895 47.7832 47.9453 43.366 49.7792 38.7593L49.7869 38.7593Z" fill="#222221"/>
<path id="Vector_14" d="M11.0943 26.694C10.7297 26.9907 10.4484 27.4098 10.2865 27.8973C10.1246 28.3848 10.0895 28.9185 10.1857 29.4299C10.1012 29.4414 10.0226 29.4864 9.9624 29.5576C8.32999 31.3815 6.11239 33.7617 6.28179 36.6982C6.45119 39.6348 8.4686 41.8782 10.255 43.4741C13.2811 46.21 16.415 47.2405 19.1254 46.0367C20.7445 45.2611 22.1272 43.9225 23.0909 42.1974C23.2139 42.1625 23.3208 42.073 23.3896 41.9474C23.4584 41.8218 23.4838 41.6697 23.4605 41.5225C23.4888 41.5735 23.5311 41.6113 23.5802 41.6296C23.6293 41.6478 23.6822 41.6455 23.73 41.6228C27.58 40.1181 26.6868 37.6284 24.1458 34.9017C21.9205 32.5123 19.6567 30.1777 17.3236 27.9434C15.9992 26.6666 14.8211 25.2075 13.0347 25.6908C12.3379 25.8686 11.6781 26.2097 11.0943 26.694ZM7.65239 38.3124C6.92859 34.9929 8.71499 32.5853 10.4244 30.4239C11.4331 33.4516 14.9289 37.1816 18.0782 39.653C17.8626 39.9813 17.647 40.3187 17.4237 40.647C17.2004 40.9753 16.8308 41.404 16.7923 41.8782C16.7538 42.3524 17.0156 42.5804 17.2928 42.7902C17.7625 43.1549 18.2784 43.465 18.7712 43.8024C18.854 43.8638 18.9539 43.8838 19.0491 43.8582C19.1444 43.8325 19.2272 43.7633 19.2794 43.6656C19.7504 42.9303 20.1459 42.1313 20.4575 41.2854C21.0697 41.6703 21.7151 41.976 22.3825 42.1974C21.3412 43.4658 20.105 44.4872 18.7404 45.2069C16.4304 46.1188 14.2436 45.0062 12.257 43.6474C10.7863 42.6351 8.12979 40.4464 7.65239 38.2668L7.65239 38.3124ZM11.4254 29.4025C11.3638 22.955 18.7558 30.9893 19.8107 32.0563C21.3969 33.6523 27.8803 38.3398 23.5298 41.0483C23.4803 41.0791 23.4399 41.127 23.4137 41.1856C23.3876 41.2442 23.3771 41.3108 23.3835 41.3766C23.3424 41.2952 23.2851 41.227 23.2167 41.1777C23.1483 41.1285 23.0708 41.0997 22.9908 41.0939C20.7578 40.9115 18.2014 38.1574 16.5382 36.5341C14.875 34.9108 11.4562 32.029 11.4254 29.3569L11.4254 29.4025ZM17.7009 41.7414C17.874 41.3717 18.0949 41.0363 18.3554 40.7474C18.4786 40.5376 18.6095 40.3461 18.7327 40.1455C19.1485 40.4555 19.5489 40.72 19.9339 40.9753C19.5566 41.5864 19.2255 42.243 18.8713 42.854L18.1629 42.3524C17.9991 42.2691 17.8461 42.1585 17.7086 42.0241C17.6085 41.8052 17.6547 41.8508 17.7009 41.6958L17.7009 41.7414Z" fill="#222221"/>
<path id="Vector_15" d="M22.6518 8.86535C22.2087 9.31546 21.8548 9.87569 21.6153 10.5062C21.3757 11.1367 21.2564 11.8219 21.2658 12.5132C21.278 12.6081 21.3185 12.6947 21.38 12.7572C21.4414 12.8198 21.5198 12.8541 21.6008 12.8541C21.6818 12.8541 21.7602 12.8198 21.8216 12.7572C21.8831 12.6947 21.9236 12.6081 21.9357 12.5132C21.9286 11.93 22.0203 11.3511 22.2055 10.8106C22.3906 10.2702 22.6655 9.77929 23.0137 9.36693C23.0699 9.3101 23.1047 9.22916 23.1105 9.14194C23.1163 9.05471 23.0925 8.96835 23.0445 8.90183C22.9966 8.83532 22.9282 8.79411 22.8546 8.78727C22.7809 8.78042 22.708 8.80851 22.6518 8.86535Z" fill="#222221"/>
<path id="Vector_16" d="M22.2443 12.1932C22.0133 12.6218 22.5984 13.105 22.8139 12.6218C23.1211 12.0322 23.4012 11.4235 23.653 10.7983C23.6857 10.7366 23.6963 10.6621 23.6826 10.5912C23.6689 10.5202 23.632 10.4586 23.5799 10.4199C23.5278 10.3812 23.4649 10.3686 23.405 10.3849C23.3451 10.4011 23.2931 10.4449 23.2604 10.5065C22.8909 11.0536 22.5907 11.6371 22.2443 12.1932Z" fill="#222221"/>
<path id="Vector_17" d="M16.1919 47.5507C15.83 47.5507 15.7299 48.2255 16.0841 48.2893C17.1454 48.4948 18.2301 48.4576 19.2796 48.1799L19.7185 48.0522C19.7558 48.04 19.7893 48.0152 19.815 47.9808C19.8407 47.9465 19.8573 47.904 19.8631 47.8587C19.8688 47.8133 19.8632 47.767 19.8471 47.7252C19.831 47.6835 19.8051 47.6482 19.7724 47.6236C19.7295 47.6101 19.6844 47.6101 19.6415 47.6236C18.4927 47.7451 17.3363 47.7206 16.1919 47.5507Z" fill="#222221"/>
<path id="Vector_18" d="M15.5145 49.721C15.4233 49.6956 15.3276 49.7074 15.2428 49.7544C15.1581 49.8014 15.0891 49.881 15.0473 49.9802C15.0054 50.0793 14.993 50.1923 15.0121 50.3009C15.0312 50.4094 15.0807 50.5072 15.1526 50.5783C15.1907 50.6067 15.2322 50.6282 15.2758 50.6421C16.6901 51.0764 18.1846 50.9646 19.5416 50.3229C19.5849 50.2945 19.621 50.2529 19.6462 50.2024C19.6713 50.1519 19.6846 50.0943 19.6846 50.0357C19.6846 49.977 19.6713 49.9194 19.6462 49.8689C19.621 49.8184 19.5849 49.7768 19.5416 49.7484C19.4848 49.7042 19.4158 49.6878 19.3491 49.7028C18.0907 50.0737 16.7753 50.08 15.5145 49.721Z" fill="#222221"/>
<path id="Vector_19" d="M44.1125 3.3571C43.7506 3.41182 43.8122 4.11403 44.1741 4.10491C45.3248 4.082 46.4648 4.36888 47.5082 4.94392C47.7315 5.06247 47.8239 4.66121 47.6699 4.51529C46.66 3.58759 45.381 3.17118 44.1125 3.3571Z" fill="#222221"/>
<path id="Vector_20" d="M53.5833 15.2398C53.1598 15.2398 53.1213 16.0606 53.5833 16.0424C54.6123 16.0066 55.6241 16.3612 56.4708 17.0546C56.5176 17.0856 56.5721 17.0963 56.6248 17.0849C56.6776 17.0736 56.7254 17.0408 56.7599 16.9923C56.7945 16.9438 56.8138 16.8825 56.8144 16.819C56.8151 16.7555 56.797 16.6937 56.7634 16.6443C56.3486 16.1551 55.8502 15.7767 55.3017 15.5345C54.7532 15.2922 54.1673 15.1918 53.5833 15.2398Z" fill="#222221"/>
<path id="Vector_21" d="M32.7168 59.5239C32.6925 59.5496 32.6728 59.5808 32.6587 59.6155C32.6446 59.6503 32.6364 59.6881 32.6346 59.7266C32.6329 59.7651 32.6375 59.8037 32.6483 59.8401C32.6591 59.8765 32.6758 59.91 32.6976 59.9387C32.7193 59.9675 32.7456 59.9908 32.775 60.0075C32.8043 60.0242 32.8362 60.0339 32.8687 60.036C32.9012 60.0382 32.9338 60.0327 32.9645 60.0199C32.9953 60.0071 33.0236 59.9873 33.0478 59.9615C33.9165 59.2049 34.6712 58.2802 35.2803 57.2263C35.5343 56.7704 34.9493 56.3602 34.6798 56.7796C34.071 57.7387 33.4156 58.655 32.7168 59.5239Z" fill="#222221"/>
<path id="Vector_22" d="M32.6005 61.8592C32.3772 62.0508 32.6005 62.4976 32.87 62.3244C34.0407 61.4695 35.0039 60.269 35.6651 58.8406C35.873 58.3847 35.3032 57.9287 35.0876 58.4029C34.4776 59.753 33.6293 60.9318 32.6005 61.8592Z" fill="#222221"/>
</g>
</svg>
