<svg width="63" height="68" viewBox="0 0 63 68" fill="none" xmlns="http://www.w3.org/2000/svg">
<path id="Vector" d="M0.0934708 24.6839C0.247481 26.3061 1.30223 28.2234 1.83252 29.7493C2.72776 32.3009 3.62831 34.8423 4.53742 37.3899C8.06529 47.2553 11.4283 57.3228 15.5267 66.8904C15.2611 67.4328 15.8394 68.2428 16.3487 67.858L16.8005 67.5152C16.8884 67.4456 16.9602 67.3511 17.0094 67.2402C22.3288 62.2101 28.1687 59.3938 34.7698 57.4232C35.5135 58.8809 36.969 60.2356 38.4329 59.5326C39.476 59.0337 40.8667 57.0416 40.6804 55.5151C46.9197 50.4372 54.1118 47.2411 61.6315 46.2048C61.6938 46.1912 61.7506 46.1541 61.7935 46.0989C61.841 46.1536 61.9019 46.189 61.9674 46.2002C62.0329 46.2114 62.0997 46.1978 62.1583 46.1612C62.2169 46.1247 62.2642 46.0671 62.2934 45.9968C62.3227 45.9265 62.3324 45.847 62.3212 45.7697C60.7396 35.0495 56.3379 25.2455 53.2892 15.0644C52.7899 13.3998 50.6684 -0.846966 46.8802 2.89764C46.6772 2.11557 46.2692 1.43044 45.7152 0.941636C43.337 -0.598042 38.7129 3.36224 36.7839 4.81934C32.6654 7.99714 29.2175 12.2517 26.7054 17.2556C26.5474 17.2368 26.3887 17.2811 26.2544 17.3813C19.2008 12.0285 10.0981 11.6179 2.39234 15.2146C2.27196 15.2758 2.17671 15.3906 2.12717 15.5342C2.07763 15.6778 2.07776 15.8387 2.12754 15.9822C2.06447 16.0495 2.02113 16.1388 2.00382 16.2372C1.9865 16.3355 1.99613 16.4379 2.03128 16.5294C2.46809 17.9166 2.89267 19.3159 3.31887 20.7233C1.62365 21.8464 -0.132037 22.2232 0.0934708 24.6839ZM2.15229 27.6742C1.50294 26.328 1.26825 24.7567 1.48829 23.2284L3.66995 21.7529C3.72384 22.024 3.82794 22.2899 3.90959 22.5533C3.82434 22.5553 3.74142 22.5865 3.67083 22.6432C3.60023 22.6998 3.54497 22.7794 3.5117 22.8723C2.6512 25.2109 3.45865 27.284 4.18776 29.5523C5.1776 32.6412 6.19871 35.7155 7.25113 38.7754C9.96053 46.6229 13.5772 54.3562 15.1896 62.5789C15.1525 62.7974 15.1137 63.0076 15.0835 63.2242C15.0667 63.3069 15.0663 63.3931 15.0823 63.476C15.0997 63.5581 15.1346 63.6334 15.1838 63.6947C15.233 63.756 15.2947 63.8011 15.363 63.8257C15.4314 63.8504 15.5039 63.8536 15.5736 63.8352C15.6432 63.8167 15.7077 63.7772 15.7607 63.7205C21.8546 58.2065 29.236 55.0522 36.8987 54.6876C36.93 54.6877 36.9609 54.6791 36.9889 54.6625C37.2155 54.7864 37.4284 54.9425 37.6232 55.1274C37.6582 55.1641 37.7002 55.1904 37.7455 55.204C37.7909 55.2175 37.8384 55.218 37.8839 55.2053C37.9295 55.1926 37.9718 55.1671 38.0073 55.131C38.0428 55.0949 38.0705 55.0492 38.088 54.9978C38.1727 55.0076 38.2577 54.9832 38.3293 54.9286C38.4008 54.8741 38.4547 54.7925 38.4822 54.6971C38.5569 54.7718 38.6513 54.8134 38.7491 54.8146C38.8469 54.8158 38.942 54.7766 39.0181 54.7038C45.2359 48.8547 52.706 45.1714 60.5914 44.0666C60.6507 44.054 60.707 44.0266 60.7566 43.986C60.8061 43.9455 60.8477 43.8928 60.8786 43.8316C60.9095 43.7704 60.9289 43.702 60.9355 43.6311C60.9422 43.5602 60.9359 43.4885 60.9171 43.4208C60.8901 43.2873 60.8225 43.1702 60.7273 43.0921C59.8945 42.4543 58.9941 41.95 58.0495 41.5926L58.216 41.5462C58.2688 41.5669 58.3251 41.572 58.38 41.5611L59.0738 41.3677C59.5109 41.2458 59.3476 40.4241 58.9105 40.546L58.5844 40.6369C56.5484 32.8618 53.8966 25.2671 51.4749 17.6516C50.315 14.0262 49.1607 10.4051 48.0122 6.78806C47.8204 6.19114 47.6154 5.0862 47.3292 3.97789C49.3728 1.73435 51.2298 10.6347 51.4351 11.41C51.8347 12.929 52.2632 14.4341 52.7207 15.9254C53.5613 18.7176 54.4953 21.5012 55.4232 24.2171C57.5526 30.5092 59.5403 36.7887 61.1644 43.2651C61.3432 43.9437 61.5065 44.618 61.6714 45.3005C53.9528 45.778 46.5172 48.8995 40.2677 54.286C40.2106 54.3325 40.1626 54.3932 40.1273 54.4639C40.0675 54.4725 40.0104 54.4982 39.9609 54.5388C39.9114 54.5794 39.871 54.6337 39.8432 54.697C39.8154 54.7602 39.801 54.8306 39.8013 54.9019C39.8016 54.9732 39.8166 55.0434 39.845 55.1063C40.2319 56.1692 38.585 58.3455 37.6986 58.3064C36.7011 58.2983 36.0941 56.9759 35.4994 56.2312C35.4442 56.1634 35.3763 56.112 35.3012 56.0811C35.2261 56.0503 35.1459 56.0408 35.0671 56.0534C34.9884 56.0661 34.9132 56.1006 34.8478 56.1541C34.7823 56.2076 34.7285 56.2786 34.6905 56.3613L34.6489 56.3729C27.7898 57.34 21.4194 61.1715 16.1131 66.2673C15.8008 65.3224 15.4869 64.3692 15.1607 63.4282C13.0506 57.2695 10.6988 51.2215 8.49647 45.1145C7.11505 41.308 5.74982 37.4971 4.40077 33.6816C3.60353 31.7705 2.71733 29.7801 2.15229 27.6742ZM6.93533 35.3078C5.90087 32.24 3.22763 27.0796 4.21414 23.5697C7.18902 33.5633 10.0635 43.715 13.8215 53.2647C13.8233 53.3613 13.8433 53.4562 13.8799 53.5425C13.9165 53.6288 13.9689 53.7043 14.0333 53.7636C14.0977 53.8229 14.1724 53.8645 14.2521 53.8852C14.3317 53.906 14.4143 53.9055 14.4938 53.8838L15.0337 53.6899C15.3701 55.3826 15.6666 57.0951 15.9839 58.8018C15.9289 58.8246 15.8802 58.8648 15.843 58.9179C15.8058 58.9711 15.7816 59.0352 15.7729 59.1034L15.4046 61.3395C14.7608 55.5958 12.2684 50.3502 10.3518 45.0915C9.16657 41.8548 8.02776 38.5935 6.93533 35.3078ZM14.2149 52.5913C11.279 40.2887 6.89224 28.3126 3.14869 16.3306C10.9471 12.9422 18.7794 13.9238 26.1557 18.1373C29.8221 29.9154 33.1041 42.0434 37.3651 53.5343C30.0586 49.6 21.7324 49.2608 14.2149 52.5913ZM16.0772 62.2187L16.45 59.8946C16.5085 59.9197 16.5708 59.93 16.6328 59.9246C16.6948 59.9193 16.7552 59.8985 16.81 59.8636C19.7923 57.8085 23.0213 56.3029 26.3861 55.3986C28.1968 54.8937 32.311 53.7466 35.2144 54.1339C28.2863 54.4569 21.6088 57.2903 16.0838 62.2515L16.0772 62.2187ZM17.4228 58.1578C16.2764 57.7316 16.1014 54.9359 15.8948 53.3804C21.8 51.2848 28.0842 51.2007 34.0279 53.1379C31.797 53.2189 29.5775 53.5474 27.3985 54.119C25.1321 54.593 22.9135 55.3453 20.7786 56.3636C20.3028 56.5483 17.9285 58.381 17.4294 58.1906L17.4228 58.1578ZM27.4768 18.2633C27.5512 18.2059 27.6136 18.1292 27.6592 18.039C30.078 13.1753 33.4092 9.03597 37.395 5.94114C38.991 4.72432 41.4003 2.69968 43.2928 2.45824C44.4466 1.5584 45.3099 2.0953 45.8828 4.06895C46.0445 4.58757 46.2131 5.10426 46.3829 5.66397C46.8699 6.89841 47.2153 8.26773 47.6223 9.54182C50.9805 20.0269 54.0399 30.7774 57.8988 41.0188C57.673 41.1268 57.4533 41.2518 57.2409 41.393L57.1014 41.3539C57.0449 41.3321 56.9836 41.3364 56.9297 41.3659C56.8758 41.3954 56.8333 41.4479 56.8108 41.513C49.8921 43.1385 42.7165 46.7868 38.1454 53.3341C35.172 41.4322 31.1056 29.8523 27.4768 18.2633ZM41.5065 51.3823C46.1284 46.8589 51.2921 44.0663 57.2977 42.0103C57.9764 42.3377 58.629 42.7362 59.2478 43.201C52.8887 44.3084 46.8235 47.1053 41.5065 51.3823Z" fill="#222221"/>
</svg>
