<svg width="83" height="92" viewBox="0 0 83 92" fill="none" xmlns="http://www.w3.org/2000/svg">
<g id="Group 1459">
<path id="Vector" d="M79.5254 60.3024C79.2868 61.9259 78.2832 62.4785 76.8746 62.5976C74.6882 62.745 72.2277 61.8659 70.0476 61.4916L64.1413 60.4945C64.4911 65.7477 62.8502 70.696 60.0425 75.4792C62.0941 76.2354 61.8288 80.3369 61.2665 82.2674C60.2645 85.7968 57.4754 86.8253 54.6526 87.4735C54.5304 87.4885 54.4081 87.4455 54.3126 87.3539C54.2171 87.2622 54.1562 87.1295 54.1433 86.9847C53.9149 83.8128 52.8908 79.0465 55.0494 76.5147C55.5641 75.9067 56.1975 75.4585 56.8935 75.2098C57.5894 74.9611 58.3264 74.9196 59.0392 75.089C59.0418 74.9671 59.0709 74.8481 59.1238 74.7435C61.7063 69.9015 63.1771 65.1604 62.7999 60.3075C61.6725 60.1126 60.4862 59.9622 59.2688 59.8156C59.3229 59.9254 59.3493 60.0513 59.3448 60.1783C59.3403 60.3053 59.305 60.4281 59.2432 60.5321C57.8528 62.8692 56.474 65.2174 55.0951 67.5655C54.22 69.0386 53.3384 71.325 52.1557 72.458C50.5962 73.9479 48.9701 73.2071 47.092 72.696C41.0149 71.0375 35.2269 68.1425 29.9857 64.1399C24.8815 60.2523 18.2901 54.3538 15.4639 47.7459C14.6628 45.8544 15.0974 45.0252 16.1172 43.3542C18.4271 39.4398 20.9017 35.6653 23.5316 32.0451L22.6684 30.8126C21.1653 28.6218 19.6622 26.4309 18.1591 24.24C17.1592 22.764 15.4607 20.9096 14.8488 19.1436C14.3638 17.7463 14.401 16.5695 15.4227 15.8658C15.1709 15.6242 15.3281 15.034 15.668 15.1469C22.2941 17.295 28.8595 19.5871 35.5776 21.2959C41.0698 22.7041 47.1381 23.2841 52.0814 26.7141C57.6218 30.56 61.2519 37.8495 65.8999 42.9722C70.6932 48.2567 75.7775 53.1019 79.956 59.1325C80.0155 59.2382 80.0515 59.3599 80.061 59.4864C80.0704 59.6129 80.0529 59.7401 80.0101 59.8565C79.9673 59.9729 79.9004 60.0748 79.8158 60.1527C79.7311 60.2305 79.6312 60.282 79.5254 60.3024ZM55.0663 86.2313C56.8676 85.8154 58.6558 85.2523 59.7701 83.3463C60.5663 81.9884 61.5842 77.3965 59.6824 76.3798C60.1622 77.3067 60.3864 78.3877 60.3239 79.4724C60.2613 80.5572 59.915 81.592 59.3332 82.433C59.2771 82.4932 59.2048 82.5277 59.1292 82.5303C59.0535 82.5328 58.9796 82.5031 58.9209 82.4467C58.8621 82.3903 58.8223 82.3109 58.8087 82.2227C58.7951 82.1346 58.8086 82.0436 58.8467 81.9662C59.2851 81.2642 59.5649 80.4412 59.6596 79.5753C59.7543 78.7094 59.6608 77.8291 59.388 77.0179C59.3084 78.4653 58.883 79.856 58.1615 81.028C57.8879 81.4279 57.4268 80.9517 57.6521 80.5392C58.3288 79.3043 58.7565 77.9015 58.9021 76.4395C58.2025 77.507 57.5848 78.6464 57.0564 79.8441C57.0153 79.9263 56.9503 79.9879 56.8735 80.0174C56.7968 80.0469 56.7136 80.0422 56.6396 80.0042C56.5655 79.9662 56.5057 79.8976 56.4714 79.8111C56.437 79.7246 56.4305 79.6263 56.453 79.5345C56.909 78.226 57.5602 77.0253 58.3753 75.9901C57.5356 76.033 56.7342 76.4191 56.1075 77.0825C55.4808 77.746 55.0674 78.646 54.9376 79.6296C54.5691 81.6787 54.907 84.1362 55.0524 86.2516L55.0663 86.2313ZM64.0445 59.2227C69.4488 60.2883 76.9963 61.5467 78.3124 60.2049C73.4014 59.6049 68.5273 58.64 63.7186 57.3157C63.8358 57.9895 63.9441 58.6211 64.0445 59.2227ZM77.8768 58.5968C73.6758 52.9039 68.6942 48.2134 64.0836 42.9806C59.5713 37.8535 56.0856 30.6577 50.3978 27.2767C45.0035 24.0763 38.523 23.5723 32.7294 21.9534C27.6279 20.5727 22.595 18.8579 17.6539 16.8168C21.5449 21.9652 25.3595 27.1976 29.2019 32.3892L35.9171 41.4603C37.8862 44.1246 39.7682 47.4013 42.183 49.5389C44.988 52.0622 49.2575 52.3756 52.6146 53.1496L61.7097 55.2083L61.843 55.2351C61.4608 54.0981 61.001 52.9998 60.4683 51.9512C57.0915 45.2753 51.3366 41.0777 46.0772 36.738C45.7567 36.4305 46.095 35.7559 46.4607 35.9833C52.9068 40.4176 59.6841 45.7534 62.8 54.155C62.977 54.6168 63.1172 55.0769 63.2746 55.5536C68.0756 56.7251 72.9608 58.0784 77.8582 58.6239L77.8768 58.5968ZM62.6987 58.9866C62.6042 58.3183 62.4774 57.6569 62.3191 57.0056C61.1094 56.7093 59.8836 56.4087 58.6922 56.1411C55.4537 55.4062 52.1937 54.6656 48.9124 53.9194C46.6824 53.3962 44.3239 53.0192 42.3344 51.6041C40.1203 50.0183 38.4358 47.2567 36.7579 44.9841L30.0485 35.9186C25.3139 29.5228 20.5309 23.1703 15.8681 16.6974C15.0574 18.8386 20.8845 26.1592 21.7556 27.4218C23.5624 30.0463 25.3903 32.6537 27.2395 35.244C31.308 40.9782 35.3594 47.9983 40.3852 52.5965C45.4109 57.1947 52.6961 57.1461 58.6563 58.1613C59.2009 58.2797 60.7097 58.5824 62.6987 58.9866ZM46.096 70.9094C49.7436 72.0071 51.1124 71.7937 53.3522 68.0486C55.0286 65.2562 56.705 62.4639 58.3815 59.6715C52.1115 58.9429 45.1049 58.2933 40.1976 54.1455C36.7676 51.2471 34.1369 46.8477 31.4119 43.0988C28.8948 39.628 26.4132 36.1239 23.967 32.5865C22.366 35.6196 20.5186 38.4725 18.7252 41.3435C17.738 42.9111 16.539 44.0958 16.5906 46.0988C16.6363 47.9166 17.5424 48.8647 18.5246 50.2002C25.6594 60.345 35.3121 67.5689 46.1113 70.8455L46.096 70.9094Z" fill="#222221"/>
<path id="Vector_2" d="M59.7566 83.3666C58.6423 85.2725 56.8541 85.8357 55.0529 86.2516C54.9214 84.1158 54.581 81.6896 54.9127 79.6389C55.0425 78.6553 55.4559 77.7553 56.0826 77.0918C56.7093 76.4284 57.5107 76.0423 58.3505 75.9994C57.5353 77.0346 56.8841 78.2353 56.4281 79.5438C56.4056 79.6356 56.4121 79.7339 56.4465 79.8204C56.4808 79.9069 56.5406 79.9755 56.6146 80.0135C56.6887 80.0515 56.7719 80.0562 56.8486 80.0267C56.9254 79.9972 56.9904 79.9356 57.0315 79.8534C57.5599 78.6556 58.1776 77.5162 58.8772 76.4487C58.7316 77.9108 58.3039 79.3136 57.6272 80.5485C57.4019 80.961 57.8859 81.4591 58.1365 81.0372C58.8581 79.8653 59.2835 78.4746 59.3631 77.0272C59.6359 77.8384 59.7294 78.7186 59.6347 79.5846C59.54 80.4505 59.2602 81.2735 58.8218 81.9755C58.7837 82.0529 58.7702 82.1439 58.7838 82.232C58.7974 82.3202 58.8372 82.3996 58.896 82.456C58.9547 82.5124 59.0286 82.5421 59.1043 82.5396C59.1799 82.537 59.2522 82.5025 59.3082 82.4423C59.8901 81.6013 60.2364 80.5665 60.299 79.4817C60.3616 78.3969 60.1373 77.316 59.6574 76.3891C61.5708 77.4167 60.5529 82.0087 59.7566 83.3666Z" fill="#6F6F6F"/>
<path id="Vector_3" d="M78.2944 60.2319C76.983 61.5669 69.4309 60.3152 64.0265 59.2496C63.9447 58.621 63.855 57.9623 63.7006 57.3426C68.5093 58.6669 73.3835 59.6319 78.2944 60.2319Z" fill="#7E5279"/>
<path id="Vector_4" d="M72.5226 55.1433C72.9471 55.1464 73.0398 55.8978 72.5979 55.934C71.045 56.0526 69.4861 55.869 67.9834 55.3906C67.6274 55.2735 67.686 54.6336 68.0687 54.6978C69.5419 54.9775 71.0307 55.1264 72.5226 55.1433Z" fill="#222221"/>
<path id="Vector_5" d="M72.4736 53.692C72.9024 53.7442 72.7925 54.5145 72.3741 54.4611C71.4958 54.3592 70.6175 54.2574 69.7408 54.0561C69.4685 53.9969 69.4507 53.4409 69.7555 53.4527C70.663 53.4703 71.5781 53.5737 72.4736 53.692Z" fill="#222221"/>
<path id="Vector_6" d="M64.0649 43.0078C68.6756 48.2405 73.6571 52.931 77.8581 58.624C72.9607 58.0785 68.0755 56.7251 63.2467 55.5943C63.1065 55.1341 62.9433 54.652 62.772 54.1957C59.6562 45.7942 52.9018 40.4803 46.4328 36.0241C46.0763 35.783 45.7288 36.4712 46.0492 36.7787C51.3087 41.1184 57.0636 45.316 60.4404 51.9919C60.9731 53.0406 61.4329 54.1388 61.8151 55.2759L61.6818 55.249L52.596 53.1768C49.2389 52.4028 44.9694 52.0894 42.1644 49.5661C39.7635 47.4082 37.8733 44.1572 35.8984 41.4874L29.1833 32.4164C25.3409 27.2247 21.5263 21.9924 17.6353 16.844C22.5764 18.8851 27.6092 20.5999 32.7107 21.9806C38.5044 23.5994 45.0021 24.1199 50.3792 27.3038C56.067 30.6848 59.5527 37.8807 64.0649 43.0078ZM72.5981 55.9341C73.04 55.8979 72.9473 55.1465 72.5228 55.1434C71.0349 55.1295 69.55 54.9842 68.0803 54.7088C67.6976 54.6447 67.6677 55.3121 67.995 55.4017C69.4946 55.8749 71.0495 56.0548 72.5981 55.9341ZM72.3734 54.4611C72.7919 54.5146 72.8788 53.7223 72.4729 53.6921C71.5946 53.5903 70.6623 53.4703 69.7777 53.4747C69.473 53.463 69.4908 54.0189 69.7631 54.0781C70.5868 54.2736 71.5008 54.3648 72.3734 54.4611ZM28.8822 23.808C29.2227 23.8092 29.2401 23.1185 28.8985 23.1051C27.8152 23.0536 26.7564 22.9245 25.6769 22.7981C25.4758 22.7734 25.3611 23.135 25.5724 23.2142C26.6501 23.6203 27.7741 23.828 28.905 23.83L28.8822 23.808ZM27.7492 22.2493C28.0698 22.3211 28.2456 21.7039 27.9103 21.5843C26.5795 21.1266 25.1864 20.9794 23.8083 21.1509C23.6218 21.174 23.6061 21.5295 23.8016 21.5486C24.4684 21.6271 25.1122 21.6836 25.7858 21.7798C26.4594 21.8761 27.1114 22.1424 27.7721 22.2712L27.7492 22.2493Z" fill="#7E5279"/>
<path id="Vector_7" d="M62.3196 57.0055C62.4779 57.6567 62.6047 58.3182 62.6992 58.9865C60.7102 58.5822 59.1728 58.2521 58.6407 58.157C52.692 57.1528 45.322 57.1313 40.3696 52.5922C35.4172 48.0531 31.2696 40.9519 27.2239 35.2397C25.3779 32.6448 23.5499 30.0374 21.74 27.4174C20.8689 26.1549 15.0419 18.8342 15.8525 16.6931C20.52 23.1592 25.303 29.5117 30.0329 35.9142L36.7423 44.9798C38.4202 47.2523 40.1047 50.014 42.3188 51.5997C44.3083 53.0149 46.6668 53.3919 48.8968 53.9151C52.1658 54.6793 55.4296 55.4236 58.688 56.1478C59.8956 56.4196 61.1099 56.7092 62.3196 57.0055Z" fill="#7E5279"/>
<path id="Vector_8" d="M53.3519 68.0484C51.1122 71.7935 49.7434 72.0069 46.0957 70.9092C35.2966 67.6327 25.6439 60.4088 18.5091 50.2639C17.5454 48.9013 16.6279 47.9422 16.5751 46.1626C16.5234 44.1595 17.7225 42.9748 18.7096 41.4072C20.503 38.5362 22.3504 35.6833 23.9515 32.6502C26.4138 36.1732 28.8955 39.6774 31.3964 43.1625C34.126 46.9046 36.7521 51.3108 40.1821 54.2093C45.078 58.346 52.0788 58.9901 58.3659 59.7352C56.7035 62.4887 55.0322 65.2597 53.3519 68.0484ZM22.4572 51.0886C22.4826 51.1261 22.5142 51.1571 22.5501 51.1795C22.5861 51.2019 22.6255 51.2152 22.666 51.2187C22.7065 51.2222 22.7472 51.2157 22.7855 51.1997C22.8238 51.1837 22.8588 51.1585 22.8885 51.1257C22.9182 51.0928 22.9418 51.0531 22.9579 51.0089C22.974 50.9648 22.9821 50.9172 22.982 50.8691C22.9818 50.821 22.9732 50.7735 22.9568 50.7295C22.9403 50.6855 22.9164 50.646 22.8865 50.6135C21.9777 49.5169 21.0875 48.3933 20.1649 47.317C20.1234 47.2763 20.0708 47.2549 20.0169 47.257C19.9631 47.259 19.9117 47.2842 19.8725 47.328C19.8332 47.3717 19.8088 47.4309 19.8039 47.4944C19.7989 47.5579 19.8137 47.6214 19.8455 47.673C20.6918 48.8331 21.6006 49.9297 22.4572 51.0886ZM21.5842 52.1707C21.6434 52.2275 21.7192 52.2541 21.795 52.2447C21.8708 52.2353 21.9403 52.1906 21.9882 52.1205C22.0362 52.0504 22.0587 51.9606 22.0507 51.8709C22.0428 51.7812 22.0051 51.6988 21.9459 51.642C20.4624 50.3313 19.234 48.6585 18.3435 46.7369C18.2174 46.4362 17.8082 46.6049 17.9307 46.9246C18.6997 49.051 19.9698 50.87 21.5889 52.1639L21.5842 52.1707Z" fill="#7E5279"/>
<path id="Vector_9" d="M22.8873 50.6137C22.9173 50.6462 22.9412 50.6857 22.9576 50.7297C22.974 50.7736 22.9826 50.8212 22.9828 50.8692C22.983 50.9173 22.9748 50.965 22.9587 51.0091C22.9426 51.0533 22.919 51.093 22.8894 51.1258C22.8597 51.1587 22.8246 51.1839 22.7863 51.1999C22.748 51.2159 22.7074 51.2224 22.6669 51.2189C22.6264 51.2154 22.5869 51.2021 22.551 51.1797C22.5151 51.1573 22.4834 51.1263 22.4581 51.0888C21.5875 49.9502 20.6927 48.8333 19.8464 47.6731C19.8146 47.6216 19.7998 47.5581 19.8047 47.4946C19.8097 47.4311 19.8341 47.3719 19.8733 47.3281C19.9126 47.2844 19.9639 47.2592 20.0178 47.2571C20.0716 47.2551 20.1242 47.2765 20.1657 47.3172C21.0884 48.3934 21.9786 49.5171 22.8873 50.6137Z" fill="#222221"/>
<path id="Vector_10" d="M21.9464 51.6423C22.0056 51.6991 22.0433 51.7814 22.0513 51.8711C22.0592 51.9609 22.0367 52.0507 21.9888 52.1208C21.9408 52.1909 21.8713 52.2355 21.7955 52.2449C21.7198 52.2544 21.644 52.2277 21.5848 52.1709C19.9665 50.8744 18.6981 49.053 17.9313 46.9248C17.8087 46.6051 18.2466 46.4639 18.3441 46.7371C19.2345 48.6587 20.463 50.3315 21.9464 51.6423Z" fill="#222221"/>
<path id="Vector_11" d="M28.9216 23.1269C29.2631 23.1403 29.2457 23.8309 28.9052 23.8298C27.7829 23.8321 26.6669 23.6319 25.5955 23.236C25.3842 23.1568 25.4989 22.7952 25.7 22.8199C26.7795 22.9463 27.8383 23.0753 28.9216 23.1269Z" fill="#222221"/>
<path id="Vector_12" d="M27.9338 21.606C28.269 21.7257 28.0932 22.3429 27.7727 22.271C27.1119 22.1422 26.4747 21.9237 25.8093 21.8016C25.1439 21.6795 24.4872 21.6556 23.8251 21.5704C23.6296 21.5512 23.6453 21.1958 23.8317 21.1726C25.2099 21.0012 26.603 21.1484 27.9338 21.606Z" fill="#222221"/>
</g>
</svg>
