<svg width="186" height="120" viewBox="0 0 186 120" fill="none" xmlns="http://www.w3.org/2000/svg">
<g id="Group">
<g id="Layer 1">
<path id="Vector" d="M73.3727 119.954C77.1989 119.712 80.9568 118.652 84.4652 116.825C87.5416 115.247 90.4484 113.239 93.1239 110.844C95.1051 112.745 97.3556 114.212 99.7701 115.177C102.431 116.335 105.236 116.961 108.07 117.028C113.543 117.071 118.89 115.077 123.359 111.325C125.892 109.38 128.003 106.754 129.522 103.66C129.552 103.612 129.568 103.553 129.568 103.493C129.568 103.433 129.552 103.375 129.522 103.327C132.998 104.387 136.541 105.118 140.115 105.512C148.411 106.447 156.781 105.504 164.781 102.734C171.864 100.272 179.118 95.9574 182.987 88.1438C184.801 84.3593 185.71 80.0589 185.617 75.7063C185.523 71.3537 184.431 67.1139 182.457 63.4439C180.472 59.9856 177.737 57.2276 174.54 55.4612C171.344 53.6949 167.805 52.9856 164.297 53.4084C163.613 53.5125 162.94 53.6923 162.284 53.9454C162.821 49.8581 162.596 45.6809 161.625 41.7078C160.655 37.7348 158.963 34.0623 156.668 30.9489C154.178 27.6749 151.056 25.1674 147.569 23.6419C144.083 22.1164 140.336 21.6185 136.651 22.191C134.544 22.4911 132.478 23.1135 130.505 24.0426C128.912 24.7717 127.419 25.7762 126.074 27.0236C124.844 21.1921 122.118 15.9579 118.273 12.0444C113.379 7.2021 107.589 3.8015 101.377 2.12006C89.2236 -1.58307 75.4009 -0.972066 65.0416 8.28576C60.0636 12.5662 56.4164 18.6782 54.6667 25.672C54.6478 25.7011 54.6375 25.737 54.6375 25.7738C54.6375 25.8107 54.6478 25.8465 54.6667 25.8756C44.1047 25.2461 33.2618 26.4867 23.5578 31.7266C14.7431 36.5036 6.97363 44.595 3.18252 55.5192C1.23071 60.9412 0.406655 66.8409 0.779924 72.7203C1.1967 78.0956 2.7239 83.2659 5.22629 87.7735C10.3637 96.562 17.8599 103.024 26.4908 106.104C35.212 109.437 44.4323 109.918 53.5591 109.622C54.1661 110.765 54.9067 111.8 55.7588 112.696C56.7486 113.809 57.8306 114.802 58.9883 115.658C60.135 116.507 61.3407 117.238 62.5922 117.843C66.0174 119.452 69.6934 120.172 73.3727 119.954Z" fill="#AAAAAA"/>
<path id="Vector_2" d="M181.677 85.6257C178.557 93.4208 171.786 97.8645 165.171 100.438C157.698 103.267 149.845 104.403 142.018 103.79C134.196 103.227 126.526 100.981 119.381 97.1609L116.713 95.6427C116.198 95.3464 115.496 96.4388 116.042 96.7906C120.077 99.3287 124.35 101.293 128.773 102.642C128.704 102.659 128.639 102.698 128.586 102.753C126.929 105.024 125.113 107.124 123.156 109.029C121.146 110.844 118.916 112.286 116.541 113.307C111.518 115.442 106.05 115.611 100.94 113.788C98.3618 112.831 95.9015 111.474 93.6232 109.752C93.6796 109.721 93.7295 109.675 93.7694 109.619C93.8093 109.562 93.8382 109.496 93.8539 109.425C93.8697 109.353 93.872 109.279 93.8606 109.206C93.8492 109.134 93.8245 109.065 93.7882 109.005C93.7519 108.946 93.7048 108.896 93.6505 108.86C93.5961 108.825 93.5358 108.804 93.4738 108.799C93.4118 108.794 93.3497 108.806 93.2919 108.833C93.2341 108.86 93.1821 108.902 93.1395 108.955L92.7963 109.252C92.6091 109.104 92.3439 109.4 92.4687 109.622C87.8812 113.787 82.5398 116.626 76.8674 117.917C71.4005 119.023 65.779 117.914 60.9073 114.769C59.6653 113.933 58.4994 112.946 57.4282 111.825C56.5942 110.888 55.8026 109.899 55.0568 108.863C56.8977 108.863 58.7231 108.696 60.5484 108.585C61.9526 108.585 63.3723 108.381 64.7764 108.252C65.338 108.252 65.5721 106.974 64.9012 107.011C53.9803 107.511 43.0594 108.381 32.3257 105.419C23.5637 103.286 15.6143 97.858 9.65707 89.9398C6.9074 86.151 4.92246 81.6675 3.85339 76.8308C2.71546 71.2937 2.80685 65.5011 4.11861 60.0185C5.49611 54.6201 7.76772 49.6023 10.8003 45.2592C13.8329 40.9161 17.5655 37.3351 21.7793 34.7261C31.0308 28.653 41.7177 26.6903 52.1862 26.8755C53.5123 26.8755 54.8384 26.8755 56.1645 27.0606C56.5077 27.0606 56.7105 26.4126 56.3049 26.3756H55.478C55.54 26.3328 55.5891 26.268 55.6184 26.1904C59.0975 13.6738 68.9731 5.23068 79.6132 2.82365C85.8923 1.51329 92.3301 1.72745 98.5376 3.45317C104.497 4.80608 110.154 7.61171 115.153 11.6927C117.795 13.8516 120.036 16.6323 121.735 19.8621C123.434 23.0919 124.555 26.7018 125.029 30.4675C125.029 31.2267 126.121 30.9304 126.058 30.2453C125.996 29.5603 125.902 28.8752 125.793 28.2086C127.072 27.3569 128.289 26.357 129.662 25.672C131.295 24.8175 133.007 24.1959 134.764 23.8204C138.323 23.0604 141.984 23.3014 145.451 24.524C148.773 25.7819 151.796 27.9613 154.268 30.8818C156.739 33.8023 158.589 37.3797 159.663 41.3177C160.933 45.7255 161.187 50.4563 160.397 55.0193C160.287 55.7229 161.177 55.7044 161.27 55.0193C161.327 54.7575 161.369 54.4915 161.395 54.2231C164.617 53.7907 167.879 54.1886 170.959 55.3896C174.166 56.7176 177.019 59.0303 179.227 62.0923C181.455 65.3472 182.866 69.2801 183.299 73.4416C183.732 77.6032 183.17 81.8254 181.677 85.6257Z" fill="white"/>
<g id="Vector_3" style="mix-blend-mode:multiply">
<path d="M179.227 62.1663C177.127 59.2583 174.445 57.0235 171.427 55.6673C173.375 58.3734 174.683 61.6448 175.218 65.1473C177.761 81.4411 165.077 91.2729 153.376 94.1244C140.536 97.2535 124.763 95.476 113.952 85.9775C112.055 89.5478 109.042 92.0785 105.574 93.0134C103.069 93.5245 100.497 93.2708 98.0975 92.2764C95.6984 91.282 93.552 89.5795 91.8602 87.3291C83.81 98.1978 64.1055 92.6801 65.8217 77.2936C58.6485 81.2384 50.6847 82.7077 42.841 81.5337C35.199 80.3201 27.9215 76.9136 21.6389 71.6093C16.5684 67.3692 11.1704 61.2776 11.2484 53.3714C11.2484 47.5575 14.119 42.1509 17.6137 37.8738C11.1011 43.2237 6.33635 51.0684 4.11861 60.0926C2.80685 65.5752 2.71546 71.3678 3.85339 76.9048C4.92246 81.7416 6.9074 86.2251 9.65707 90.0139C15.5917 97.9219 23.5118 103.355 32.2477 105.511C42.9502 108.474 53.9491 107.604 64.8232 107.104C65.4941 107.104 65.26 108.307 64.6984 108.344C63.2943 108.474 61.8746 108.604 60.4704 108.678C58.6451 108.789 56.8197 108.881 54.9788 108.955C55.752 109.963 56.5696 110.921 57.4282 111.825C58.4994 112.946 59.6653 113.933 60.9073 114.769C65.7749 117.87 71.3775 118.946 76.8206 117.824C82.493 116.534 87.8344 113.694 92.4219 109.529C92.2971 109.307 92.5623 109.011 92.7495 109.159L93.0927 108.863C93.1353 108.809 93.1873 108.767 93.2451 108.74C93.3029 108.713 93.365 108.702 93.427 108.706C93.489 108.711 93.5493 108.732 93.6037 108.768C93.658 108.803 93.7051 108.853 93.7414 108.913C93.7777 108.973 93.8025 109.041 93.8138 109.114C93.8252 109.186 93.8229 109.261 93.8071 109.332C93.7914 109.403 93.7625 109.47 93.7226 109.526C93.6827 109.583 93.6328 109.628 93.5764 109.659C95.8547 111.382 98.315 112.739 100.893 113.695C106.003 115.518 111.471 115.349 116.495 113.214C118.869 112.194 121.1 110.752 123.11 108.937C125.066 107.031 126.882 104.931 128.539 102.66C128.592 102.605 128.657 102.567 128.726 102.549C124.303 101.2 120.03 99.2361 115.995 96.698C115.449 96.3462 116.151 95.2538 116.666 95.5501L119.35 97.0498C126.495 100.87 134.165 103.116 141.987 103.678C149.813 104.292 157.667 103.155 165.139 100.327C171.754 97.7719 178.557 93.3282 181.646 85.5146C183.111 81.7408 183.662 77.5567 183.234 73.4323C182.807 69.3079 181.42 65.4065 179.227 62.1663Z" fill="#EDEDED"/>
</g>
</g>
</g>
</svg>
