<svg width="175" height="119" viewBox="0 0 175 119" fill="none" xmlns="http://www.w3.org/2000/svg">
<g id="Group">
<g id="Layer 1">
<path id="Vector" d="M173.405 55.8728C172.631 53.1466 171.56 50.5617 170.22 48.1889C169.531 46.9439 168.76 45.7695 167.917 44.677C167.244 43.7131 166.453 42.8845 165.571 42.2213C165.89 37.7189 165.319 33.1885 163.906 29.0146C162.494 24.8406 160.281 21.1464 157.457 18.2453C153.688 14.621 149.237 12.2184 144.512 11.2586C139.788 10.2987 134.943 10.8127 130.423 12.753C125.209 14.8734 120.531 18.6119 116.842 23.6055C114.448 19.85 111.679 16.4789 108.599 13.5715C103.442 8.77305 97.6036 5.19159 91.3805 3.00941C78.5993 -1.43909 64.9075 0.408337 53.2199 8.15844C50.8292 9.71056 48.5344 11.4756 46.354 13.4395C37.9815 8.39608 27.3491 9.82198 19.1057 14.6013C10.1736 19.8824 2.36073 29.9692 0.768014 42.2741C0.222005 45.8304 0.324826 49.491 1.06911 52.9928C1.81339 56.4945 3.18065 59.7506 5.07264 62.527C5.28022 62.797 5.55088 62.9815 5.84745 63.0551C4.75368 65.1513 3.92633 67.4396 3.39381 69.8413C2.38256 73.7116 2.34256 77.8653 3.27899 81.7639C4.21542 85.6624 6.08507 89.1258 8.64546 91.7049C9.99031 92.9568 11.5063 93.9046 13.1223 94.5038C13.9677 94.9552 14.8799 95.1881 15.8019 95.1881C16.7239 95.1881 17.6361 94.9552 18.4816 94.5038C21.3145 100.346 25.621 104.897 30.7497 107.469C33.7657 108.959 36.9957 109.687 40.2465 109.61C43.4972 109.533 46.7018 108.652 49.6686 107.02C51.2523 110.617 53.8676 113.364 57.008 114.73C60.7742 116.492 64.7365 117.543 68.7596 117.846C77.4828 118.79 86.2711 117.541 94.5874 114.176C99.3896 112.188 103.99 109.53 108.298 106.254C108.385 106.196 108.46 106.113 108.517 106.012C108.573 105.911 108.608 105.795 108.62 105.673C112.904 109.13 117.857 111.134 122.976 111.482C130.694 111.916 138.248 108.66 144.048 102.399C145.491 100.852 146.817 99.146 148.008 97.3028C149.766 97.7783 151.587 97.7783 153.346 97.3028C155.448 96.8669 157.501 96.1222 159.458 95.0847C163.465 92.9248 166.981 89.5984 169.703 85.394C172.29 81.2495 173.984 76.3732 174.631 71.2142C175.278 66.0552 174.857 60.7794 173.405 55.8728Z" fill="#AAAAAA"/>
<path id="Vector_2" d="M172.48 69.0755C172.161 73.9414 170.838 78.6277 168.636 82.693C166.433 86.7582 163.423 90.0686 159.889 92.3122C157.906 93.6257 155.794 94.6198 153.604 95.2696C151.753 95.7713 149.859 95.8505 147.987 96.2202C148.557 95.2852 149.088 94.3158 149.579 93.3156C150.226 92.313 150.622 91.1025 150.72 89.8301C150.72 88.9851 149.838 88.7475 149.386 89.2227C148.249 90.8459 147.26 92.6168 146.437 94.5038C145.421 96.2172 144.283 97.8165 143.036 99.2832C140.536 102.204 137.617 104.531 134.427 106.149C127.688 109.528 120.138 109.528 113.399 106.149C109.556 104.214 106.005 101.5 102.896 98.1213C102.551 97.7253 101.927 98.4382 102.207 98.9135C103.613 101.228 105.305 103.26 107.222 104.934H107.028C99.7056 110.236 91.5879 113.676 83.1589 115.047C79.0394 115.676 74.8784 115.791 70.74 115.39C66.8473 115.11 62.9995 114.223 59.2897 112.75C57.4879 112.03 55.7887 110.97 54.2533 109.608C53.0379 108.432 52.0277 106.968 51.283 105.304L51.6274 105.066C53.4108 103.804 55.0715 102.298 56.5778 100.577C58.2828 98.9085 59.6156 96.7374 60.4519 94.2662C60.8178 92.7083 59.2036 92.7082 58.5579 93.4476C57.9963 94.2059 57.4853 95.0183 57.0298 95.8769C56.4896 96.7379 55.9074 97.558 55.2864 98.3326C54.0956 99.8287 52.7665 101.149 51.3261 102.267C48.4809 104.537 45.2616 106.007 41.899 106.571C38.522 107.088 35.0937 106.687 31.8575 105.395C28.6213 104.104 25.6565 101.954 23.1738 99.0983C20.3354 95.9149 18.1899 91.9122 16.9321 87.4536C16.6738 86.5294 15.4685 87.2423 15.6838 88.1137C15.9736 89.2557 16.3186 90.3755 16.7169 91.4672C15.7937 91.3919 14.8742 91.2597 13.9619 91.0711C12.688 90.6388 11.4809 89.9518 10.3891 89.0379C8.12088 87.0948 6.41097 84.3224 5.50333 81.1163C4.63454 77.6305 4.47252 73.9371 5.03139 70.357C5.59027 66.7769 6.85312 63.4183 8.71026 60.573C10.7105 57.3528 13.1239 54.5526 15.856 52.2817C16.6308 51.6216 15.856 50.4861 15.1242 51.0671C12.0523 53.3711 9.32887 56.3103 7.07451 59.7544C3.97638 55.3148 2.4297 49.5558 2.76988 43.7264C3.24951 37.8061 5.16081 32.1969 8.25829 27.6191C13.8477 19.317 21.8537 14.0129 30.5778 12.8321C35.3178 12.2139 40.1093 12.607 44.74 13.994C41.2377 17.318 38.111 21.1984 35.442 25.5331C35.2961 25.7033 35.18 25.9081 35.1007 26.1351C35.0213 26.362 34.9804 26.6064 34.9804 26.8534C34.9804 27.1004 35.0213 27.3447 35.1007 27.5717C35.18 27.7987 35.2961 28.0035 35.442 28.1737C35.8145 28.4354 36.2508 28.5259 36.6727 28.4292C37.0946 28.3324 37.4747 28.0546 37.745 27.6455C45.3823 15.132 56.6048 6.63893 69.1473 3.88075C81.6288 1.28944 94.4452 4.66283 104.962 13.3074C110.961 18.0094 116.092 24.1973 120.028 31.4743C120.222 31.8176 120.717 31.4743 120.545 31.0254C119.539 28.8449 118.41 26.7538 117.165 24.7674C120.149 20.5108 123.962 17.2498 128.25 15.2878C132.493 13.2602 137.055 12.4387 141.594 12.885C145.98 13.2446 150.198 15.0949 153.775 18.2289C157.352 21.3628 160.147 25.6566 161.847 30.6293C163.647 36.1774 163.716 42.3447 162.041 47.9512C161.546 49.4827 163.354 50.0637 163.785 48.6906C164.236 47.3161 164.582 45.8928 164.818 44.4393L165.679 45.4691C166.405 46.3903 167.081 47.3694 167.702 48.4001C168.869 50.3377 169.844 52.4385 170.607 54.6582C172.132 59.2215 172.773 64.1567 172.48 69.0755Z" fill="white"/>
<g id="Vector_3" style="mix-blend-mode:multiply">
<path d="M172.027 60.9691C171.465 65.3786 170.16 69.596 168.196 73.3532C166.176 77.0155 163.505 80.0672 160.383 82.2782C155.11 86.1862 146.372 90.1998 141.4 83.9681C138.776 85.9738 135.926 87.4952 132.941 88.4835C125.01 91.05 116.62 90.4864 108.964 86.8727C105.092 84.9897 101.466 82.4185 98.2029 79.2416C96.0506 77.2084 92.9082 74.4622 92.3056 70.9239C91.1644 72.3495 89.9417 73.6732 88.6466 74.8847C85.9804 77.4677 82.933 79.3953 79.6714 80.5619C77.1948 81.3059 74.6643 81.7481 72.1168 81.8821C69.2264 82.1562 66.3188 81.853 63.5076 80.9843C62.3599 80.7172 61.2807 80.1179 60.3598 79.2361C59.4389 78.3543 58.7028 77.2155 58.2129 75.9145C57.522 76.4556 56.803 76.9407 56.0606 77.3668C50.1632 80.6411 40.693 81.2748 36.0225 75.4128C33.2856 75.5854 30.5602 74.8657 28.1235 73.3268C23.8189 70.6863 18.7825 66.0917 17.7278 59.9129C17.318 56.2172 17.844 52.4563 19.2344 49.1395C19.955 46.9351 20.9339 44.8713 22.1401 43.0135C20.0559 43.1587 17.9651 42.9723 15.9199 42.459C11.852 41.4292 7.03083 38.7622 4.90004 34.0885C3.68911 37.1038 2.95859 40.375 2.74773 43.7264C2.41347 49.5595 3.96799 55.3189 7.07387 59.7545C9.38888 56.3388 12.1711 53.4437 15.2957 51.1991C16.0706 50.6182 16.8023 51.7537 16.0275 52.4138C13.2954 54.6847 10.8821 57.4849 8.88181 60.7051C7.02467 63.5504 5.76182 66.909 5.20294 70.4891C4.64407 74.0692 4.80608 77.7626 5.67488 81.2484C6.58252 84.4545 8.29243 87.2269 10.5606 89.17C11.6524 90.0839 12.8596 90.7708 14.1335 91.2032C15.0458 91.3918 15.9653 91.524 16.8884 91.5993C16.4901 90.5076 16.1452 89.3878 15.8553 88.2458C15.6401 87.3744 16.8454 86.6615 17.1037 87.5857C18.3615 92.0443 20.507 96.047 23.3454 99.2304C25.8281 102.086 28.7928 104.236 32.029 105.527C35.2653 106.819 38.6936 107.22 42.0705 106.703C45.4332 106.139 48.6525 104.669 51.4977 102.399C52.9381 101.281 54.2672 99.9608 55.4579 98.4647C56.0789 97.6901 56.6611 96.87 57.2013 96.009C57.6569 95.1503 58.1679 94.338 58.7294 93.5797C59.3751 92.8403 60.9894 92.8403 60.6235 94.3982C59.7872 96.8695 58.4544 99.0406 56.7493 100.709C55.2252 102.454 53.5425 103.978 51.7344 105.251L51.39 105.488C52.1347 107.153 53.1449 108.617 54.3602 109.793C55.8957 111.155 57.5949 112.215 59.3966 112.935C63.1065 114.408 66.9543 115.295 70.847 115.575C74.9854 115.976 79.1463 115.861 83.2658 115.232C91.6948 113.861 99.8125 110.421 107.135 105.119H107.329C105.412 103.445 103.72 101.413 102.314 99.0984C102.034 98.6231 102.658 97.9102 103.003 98.3062C106.084 101.565 109.582 104.179 113.355 106.043C120.094 109.423 127.645 109.423 134.383 106.043C137.574 104.426 140.493 102.098 142.993 99.1776C144.239 97.711 145.377 96.1116 146.393 94.3982C147.216 92.5112 148.205 90.7403 149.342 89.1172C149.794 88.6419 150.676 88.8795 150.676 89.7245C150.578 90.997 150.182 92.2074 149.536 93.21C149.045 94.2103 148.513 95.1797 147.943 96.1146C149.815 95.7449 151.709 95.6657 153.56 95.164C155.761 94.552 157.888 93.5935 159.888 92.3122C163.422 90.0686 166.432 86.7583 168.635 82.693C170.838 78.6278 172.161 73.9415 172.479 69.0755C172.616 66.3608 172.464 63.6358 172.027 60.9691Z" fill="#EDEDED"/>
</g>
</g>
</g>
</svg>
