<svg width="75" height="88" viewBox="0 0 75 88" fill="none" xmlns="http://www.w3.org/2000/svg">
<g id="Group 1458">
<path id="Vector" d="M34.3456 76.7418C30.8441 77.1501 28.6962 75.2761 27.0201 71.2168C21.4701 57.7318 17.2708 43.468 12.9136 29.4087C14.2349 30.8618 16.2118 30.749 18.2179 30.0985L18.2467 30.2231C18.2182 30.2279 18.1909 30.2399 18.1665 30.2583C18.1421 30.2767 18.1212 30.3011 18.1052 30.3299C18.0891 30.3587 18.0784 30.3912 18.0735 30.4252C18.0687 30.4592 18.07 30.494 18.0772 30.5272C20.887 46.9461 26.8217 62.7271 34.3456 76.7418Z" fill="#6AA742"/>
<path id="Vector_2" d="M47.3786 15.2236C52.9077 30.5935 57.322 46.4824 62.3056 62.1542C57.0799 66.5034 51.4469 70.0914 45.5266 72.8418C42.2878 74.4056 38.9477 75.6388 35.542 76.5283L35.4593 76.5439C27.8869 62.0752 22.6536 46.7998 18.5716 30.4421C18.5527 30.3732 18.5139 30.315 18.4622 30.2778C18.4105 30.2406 18.3493 30.227 18.2896 30.2393L18.2609 30.1147C20.6569 29.3298 23.1264 27.7592 24.7373 27.0045C32.3711 23.3821 39.9182 19.4551 47.3786 15.2236ZM58.0304 60.7138C58.1647 60.629 58.2666 60.4845 58.3139 60.3114C58.3612 60.1383 58.3502 59.9506 58.2833 59.7886L55.1592 52.0983C55.0866 51.9374 54.9652 51.8166 54.8198 51.7609C54.6745 51.7052 54.5164 51.7187 54.3779 51.7988C48.688 55.3904 42.4774 60.5428 36.1436 62.2124C36.0531 62.2323 35.9681 62.2797 35.8967 62.3501C35.8253 62.4204 35.7698 62.5114 35.7356 62.6143L35.6881 62.5583C35.4625 62.2067 35.0616 62.6398 35.2565 62.989C36.5116 65.2866 37.5121 67.773 38.2331 70.3862C38.2933 70.526 38.397 70.6312 38.5219 70.6791C38.6468 70.7269 38.7829 70.7137 38.9008 70.6421C45.3297 67.4758 51.6728 64.0494 58.0304 60.7138ZM58.6215 64.092C58.9708 63.8474 58.7136 63.1809 58.3571 63.4228C57.3869 64.1014 56.4051 64.8228 55.4705 65.5434C55.2038 65.744 55.3944 66.2524 55.6706 66.0744C56.6645 65.4238 57.6561 64.7819 58.6215 64.092ZM57.8855 63.0527C57.9575 63.01 58.0127 62.9349 58.0391 62.8438C58.0655 62.7527 58.0608 62.6532 58.026 62.5671C57.9913 62.481 57.9294 62.4154 57.8539 62.3846C57.7784 62.3539 57.6955 62.3607 57.6235 62.4033C56.1361 63.1884 54.6921 64.089 53.3005 65.0994C52.9936 65.3035 53.2151 65.8711 53.5316 65.6896C55.027 64.922 56.4812 64.0413 57.8855 63.0527ZM26.2605 31.3647C26.6431 31.1707 26.367 30.5443 25.9985 30.687C24.503 31.2777 23.0412 32.0611 21.5887 32.7819C21.3171 32.9144 21.5099 33.3574 21.7674 33.2479C23.2675 32.6401 24.7985 32.0913 26.2605 31.3647ZM24.8313 29.3877C25.2446 29.1676 24.9518 28.4875 24.5432 28.662C22.8164 29.4385 21.1423 30.4245 19.4467 31.3171C19.1798 31.4608 19.3798 31.935 19.6491 31.8111C21.3734 31.0147 23.1381 30.3001 24.8313 29.3877Z" fill="#6AA742"/>
<path id="Vector_3" d="M55.3844 55.781C55.9806 56.7289 56.7541 58.464 56.4093 59.5244C55.8419 61.3132 52.2284 62.2749 50.7428 63.0303C48.4709 64.2225 46.2006 65.4184 43.9319 66.6181C42.8435 67.3394 41.7026 67.9381 40.524 68.4063C38.9926 68.8129 39.1677 68.8327 38.2528 67.2421C37.5636 66.0314 37.0091 64.7872 36.353 63.5703C40.2601 62.7117 43.6753 60.1502 47.1458 57.9317C48.9377 56.8017 51.004 54.8114 52.9418 54.2388C54.6764 53.7492 54.4794 54.3551 55.3844 55.781ZM52.4765 59.6159C52.9724 59.3518 52.6081 58.4455 52.1192 58.7124C48.2273 60.7787 44.1027 62.4909 40.3512 64.8761C40.1812 64.9812 40.2271 65.3301 40.4587 65.2864C44.5658 64.0692 48.6059 61.6905 52.4765 59.6159Z" fill="#F5F5F5"/>
<path id="Vector_4" d="M40.7985 11.565C41.0658 14.1755 43.116 14.9427 45.0647 14.9043C40.6417 17.3633 36.2068 19.7799 31.722 22.0921C29.2248 23.362 26.7205 24.6101 24.209 25.8366C21.5022 27.127 16.4673 30.6764 13.4418 28.7119C13.4097 28.6654 13.368 28.6299 13.3209 28.6087L13.2214 28.5706C13.0801 28.4631 12.9447 28.3448 12.816 28.2164C11.8968 26.7851 16.5629 24.1259 16.6927 24.0242C17.9416 23.2443 19.2049 22.4983 20.4516 21.7554C22.768 20.4005 25.094 19.125 27.4794 17.9196C31.877 15.6685 36.3794 13.7226 40.7985 11.565ZM41.2436 15.1901C41.341 15.1346 41.4164 15.0351 41.4533 14.9135C41.4903 14.7918 41.4856 14.6581 41.4405 14.5416C41.3953 14.4251 41.3133 14.3355 41.2125 14.2924C41.1117 14.2493 41.0004 14.2563 40.903 14.3119C33.3129 18.3675 25.7444 22.5449 18.1877 26.7079C17.9539 26.8454 18.1301 27.2631 18.371 27.1568C26.1657 23.6671 33.8012 19.6723 41.2436 15.1901ZM39.4447 14.6518C39.8485 14.4376 39.5556 13.7006 39.1588 13.9176C31.503 18.1562 23.7637 22.1262 16.0815 26.2601C15.9068 26.3539 16.0329 26.6389 16.1959 26.5594C24.0544 22.9285 31.7745 18.8281 39.4447 14.6518Z" fill="#F5F5F5"/>
<path id="Vector_5" d="M63.2875 61.5465C63.7276 61.6017 64.0747 62.2837 63.6287 62.6238C57.4293 67.8735 50.6604 72.0664 43.5174 75.0813C39.2817 76.8266 32.5989 80.577 28.7111 76.3985C26.7969 74.3585 25.8283 71.2709 24.8274 68.5305C23.1737 64.0161 21.5364 59.4797 19.9157 54.9211C16.943 46.3898 13.9701 37.7448 11.9777 28.7848C11.7338 28.5156 11.5627 28.1647 11.4858 27.7764C11.409 27.3881 11.4299 26.9799 11.546 26.6034C12.1702 23.9467 16.3379 22.4214 18.0167 21.4183C25.707 16.7954 33.8376 12.3413 42.2983 10.096C42.3615 10.085 42.4256 10.1014 42.4793 10.1421C42.5329 10.1828 42.5726 10.2452 42.5913 10.3183C42.6099 10.3913 42.6064 10.4702 42.5812 10.541C42.556 10.6117 42.5108 10.6696 42.4537 10.7045C42.1939 10.8509 41.9199 10.9635 41.6554 11.0987C41.679 11.1517 41.6951 11.209 41.7032 11.2685C42.0448 14.2387 44.8892 13.9665 46.7173 13.9386L47.1896 13.6749C47.3067 13.613 47.4365 13.5963 47.561 13.627C47.6855 13.6578 47.7986 13.7345 47.8844 13.8465C47.9703 13.9585 48.0247 14.1003 48.0401 14.2521C48.0556 14.4039 48.0312 14.5582 47.9705 14.6936L48.0202 14.7126C54.569 29.3378 58.7841 45.9264 63.2875 61.5465ZM62.3431 62.1309C57.3525 46.4848 52.9169 30.5877 47.4161 15.2003C39.9794 19.4409 32.4205 23.3633 24.7392 26.9675C23.1284 27.7222 20.6588 29.2929 18.2628 30.0778C16.2496 30.7255 14.2774 30.8212 12.9585 29.388C17.3157 43.4473 21.508 57.7368 27.065 71.1961C28.7411 75.2554 30.889 77.1294 34.3905 76.721C26.8666 62.7063 20.9249 46.9511 18.1292 30.5092C18.122 30.476 18.1207 30.4412 18.1255 30.4072C18.1304 30.3732 18.1412 30.3407 18.1572 30.3119C18.1732 30.2831 18.1941 30.2587 18.2185 30.2403C18.2429 30.2219 18.2702 30.2099 18.2987 30.2051C18.3584 30.1928 18.4196 30.2064 18.4713 30.2436C18.523 30.2808 18.5618 30.339 18.5807 30.4079C22.7338 46.7929 27.9315 62.0546 35.5039 76.5233L35.5866 76.5077C38.9923 75.6182 42.3324 74.385 45.5712 72.8212C51.4752 70.0735 57.0929 66.4925 62.3053 62.1543L62.3431 62.1309ZM45.1022 14.881C43.1535 14.9194 41.1033 14.1522 40.8359 11.5417C36.4169 13.6993 31.9238 15.6109 27.5405 17.8674C25.1693 19.0783 22.829 20.3484 20.5126 21.7033C19.2517 22.4407 17.9885 23.1867 16.7537 23.972C16.6309 24.048 11.9649 26.7072 12.8771 28.1643C13.0058 28.2926 13.1412 28.4109 13.2825 28.5185L13.3819 28.5566C13.4291 28.5777 13.4707 28.6133 13.5028 28.6597C16.5284 30.6242 21.5917 27.0857 24.2701 25.7844C26.7752 24.5618 29.2796 23.3137 31.783 22.04C36.2065 19.7799 40.6414 17.3634 45.0644 14.9044L45.1022 14.881Z" fill="#222221"/>
<path id="Vector_6" d="M58.2974 59.7941C58.3643 59.956 58.3752 60.1438 58.3279 60.3168C58.2806 60.4899 58.1788 60.6344 58.0445 60.7192C51.6869 64.0549 45.3509 67.484 38.9219 70.6219C38.804 70.6934 38.6679 70.7067 38.543 70.6588C38.4181 70.6109 38.3144 70.5057 38.2543 70.3659C37.5332 67.7527 36.5327 65.2663 35.2776 62.9688C35.0827 62.6196 35.4907 62.1892 35.7092 62.538C35.7092 62.538 35.7401 62.5972 35.7639 62.6252C35.7981 62.5223 35.8535 62.4313 35.925 62.361C35.9964 62.2906 36.0814 62.2432 36.1719 62.2233C42.5057 60.5537 48.6879 55.3904 54.4062 51.8097C54.5447 51.7296 54.7028 51.7161 54.8481 51.7718C54.9935 51.8275 55.1149 51.9483 55.1875 52.1092L58.2974 59.7941ZM56.4093 59.5244C56.7541 58.4641 55.9807 56.729 55.3844 55.7811C54.4794 54.3552 54.6764 53.7493 52.9584 54.2642C51.0207 54.8368 48.9544 56.827 47.1624 57.9571C43.6919 60.1756 40.2767 62.7371 36.3696 63.5957C37.0304 64.7954 37.5755 66.0739 38.2694 67.2674C39.189 68.8409 39.0092 68.8382 40.5407 68.4316C41.7192 67.9634 42.8601 67.3648 43.9485 66.6434C46.2172 65.4438 48.4876 64.2479 50.7595 63.0557C52.2426 62.2804 55.8419 61.3133 56.4093 59.5244Z" fill="#222221"/>
<path id="Vector_7" d="M58.3572 63.4229C58.7137 63.181 58.9709 63.8474 58.6216 64.0921C57.6491 64.7792 56.6859 65.4321 55.6707 66.0744C55.3945 66.2524 55.2039 65.744 55.4706 65.5434C56.4265 64.831 57.387 64.1014 58.3572 63.4229Z" fill="#222221"/>
<path id="Vector_8" d="M57.6116 62.4461C57.6836 62.4034 57.7665 62.3967 57.8419 62.4275C57.9174 62.4582 57.9793 62.5238 58.0141 62.6099C58.0488 62.696 58.0535 62.7955 58.0272 62.8866C58.0008 62.9777 57.9455 63.0528 57.8735 63.0955C56.4693 64.0841 55.015 64.9648 53.5196 65.7324C53.2032 65.9139 52.9817 65.3463 53.2886 65.1422C54.6801 64.1318 56.1242 63.2312 57.6116 62.4461Z" fill="#222221"/>
<path id="Vector_9" d="M52.1196 58.7124C52.6085 58.4455 52.9728 59.3518 52.4769 59.616C48.6063 61.6905 44.5662 64.0692 40.4261 65.3211C40.2228 65.3757 40.1485 65.0159 40.3185 64.9107C44.1031 62.4909 48.2371 60.7445 52.1196 58.7124Z" fill="#222221"/>
<path id="Vector_10" d="M40.9027 14.3121C41.0001 14.2565 41.1114 14.2496 41.2122 14.2926C41.313 14.3357 41.395 14.4254 41.4402 14.5418C41.4854 14.6583 41.49 14.7921 41.4531 14.9137C41.4161 15.0353 41.3407 15.1348 41.2433 15.1904C33.7962 19.6712 26.1559 23.6642 18.3565 27.1515C18.1156 27.2579 17.9394 26.8402 18.1732 26.7027C25.7441 22.5451 33.3126 18.3677 40.9027 14.3121Z" fill="#222221"/>
<path id="Vector_11" d="M39.1587 13.9177C39.5554 13.7007 39.8483 14.4376 39.4445 14.6519C31.7743 18.8282 24.0495 22.9457 16.1957 26.5595C16.0327 26.6389 15.9066 26.354 16.0813 26.2601C23.7635 22.1262 31.5028 18.1563 39.1587 13.9177Z" fill="#222221"/>
<path id="Vector_12" d="M25.9983 30.6869C26.3668 30.5443 26.65 31.1734 26.2603 31.3647C24.7983 32.0913 23.2673 32.64 21.7671 33.2479C21.5097 33.3574 21.3169 32.9143 21.5885 32.7819C23.041 32.0611 24.5028 31.2776 25.9983 30.6869Z" fill="#222221"/>
<path id="Vector_13" d="M24.5506 28.6647C24.9617 28.4816 25.2521 29.1703 24.8388 29.3904C23.1456 30.3028 21.3809 31.0174 19.6566 31.8138C19.3873 31.9377 19.1873 31.4635 19.4542 31.3198C21.1427 30.4245 22.8168 29.4385 24.5506 28.6647Z" fill="#222221"/>
</g>
</svg>
