<svg width="63" height="45" viewBox="0 0 63 45" fill="none" xmlns="http://www.w3.org/2000/svg">
<g id="Group 1462">
<path id="Vector" d="M61.9696 43.7801C62.0346 43.8643 62.0773 43.9693 62.0925 44.082C62.1077 44.1947 62.0946 44.3101 62.055 44.4142C62.0153 44.5182 61.9508 44.6061 61.8694 44.6672C61.788 44.7282 61.6933 44.7597 61.597 44.7577C57.0382 44.7003 52.5162 43.7836 48.2009 42.0421C48.1417 42.0213 48.087 41.9857 48.0406 41.9377C47.9941 41.8897 47.9569 41.8303 47.9314 41.7638C36.2779 33.3726 24.1314 25.9725 12.3001 17.8801C11.5435 19.4958 9.52577 19.2379 8.66594 17.8801C8.44669 17.5404 8.28157 17.1562 8.17871 16.7463C8.14368 16.8293 8.08646 16.8963 8.01597 16.9368C7.94547 16.9773 7.86565 16.9891 7.78892 16.9703C6.2355 16.6105 5.55336 15.2799 5.3642 13.6234C5.33918 13.6976 5.29878 13.7631 5.24671 13.8139C5.19465 13.8647 5.1326 13.8992 5.06632 13.914C5.00004 13.9289 4.93166 13.9238 4.8675 13.8991C4.80335 13.8744 4.74549 13.8309 4.69927 13.7727C3.48978 12.218 1.71853 12.1909 0.99054 10.0252C0.417321 8.28721 0.744057 6.41345 1.34021 4.75014C1.8561 3.32446 2.61848 0.846475 4.14898 0.574915C5.55336 0.330511 7.5367 1.84446 8.73473 2.61161C8.75613 2.62259 8.77507 2.63937 8.79 2.66059C8.80494 2.68182 8.81545 2.70689 8.82071 2.73381C10.0474 1.83087 11.4518 1.71545 12.3632 3.59601C12.5948 3.48771 12.8422 3.43466 13.0912 3.43987C13.8598 3.47485 14.6025 3.77755 15.2266 4.31011C15.8506 4.84266 16.3281 5.5814 16.5993 6.43382C16.6239 6.49912 16.6318 6.57149 16.622 6.64204C16.6123 6.71259 16.5854 6.77823 16.5446 6.83089C16.5038 6.88355 16.4509 6.92093 16.3923 6.93844C16.3338 6.95594 16.2723 6.9528 16.2152 6.92941C16.156 6.89363 16.1079 6.83661 16.0777 6.76648C15.3898 5.22537 14.0427 3.93546 12.5868 4.72978C11.3371 5.40868 10.8327 7.44538 10.1735 8.80318C9.99581 9.17657 9.60029 8.80318 9.71494 8.47052C10.2882 7.05841 10.8155 4.61437 12.0651 3.71822C9.52577 0.860056 7.37047 5.42225 6.75712 7.94776C6.14378 10.4733 5.08332 15.0558 7.97808 16.0946C8.00824 16.1063 8.03711 16.1222 8.06406 16.1421C7.76599 14.2072 8.63728 12.0076 9.07866 10.2289C9.13598 9.99126 9.47418 10.0456 9.44552 10.3035C9.26782 11.7564 8.74619 13.1346 8.66594 14.601C8.60615 15.088 8.63233 15.5845 8.74284 16.0589C8.85334 16.5333 9.04577 16.9755 9.30795 17.3573C9.45039 17.5645 9.63002 17.7315 9.83378 17.8463C10.0375 17.961 10.2603 18.0205 10.4859 18.0205C10.7115 18.0205 10.9343 17.961 11.1381 17.8463C11.3418 17.7315 11.5214 17.5645 11.6639 17.3573C11.4919 17.2351 11.3314 17.1265 11.1594 17.0111C11.1074 16.9748 11.0668 16.9193 11.044 16.8531C11.0212 16.7868 11.0175 16.7135 11.0333 16.6445C10.9851 16.5686 10.9627 16.4742 10.9703 16.3797C11.1862 12.5106 12.6177 8.87746 14.9828 6.1962C15.0335 6.14231 15.0965 6.10744 15.1639 6.09601C15.2313 6.08458 15.3001 6.09712 15.3615 6.13202C15.4229 6.16692 15.4741 6.22261 15.5088 6.29205C15.5434 6.36149 15.5598 6.44156 15.556 6.52208C15.7681 6.65107 15.9802 6.78006 16.198 6.92263C28.3331 14.3905 40.0268 23.0533 51.8408 31.2001C51.9367 31.2635 52.0085 31.3679 52.0414 31.492C52.0829 31.542 52.1115 31.605 52.1237 31.6736C52.1358 31.7422 52.1312 31.8134 52.1102 31.879C53.933 33.2368 55.3546 35.4025 56.8393 37.2287C58.5532 39.4962 60.2614 41.6348 61.9696 43.7801ZM57.8481 43.3795C58.708 43.4678 59.5678 43.5357 60.4563 43.5696C59.6824 42.6192 58.9143 41.6484 58.1634 40.6979C57.9436 41.0476 57.8008 41.4566 57.7478 41.888C57.6947 42.3194 57.7332 42.7597 57.8596 43.1691C57.87 43.2393 57.866 43.3115 57.8481 43.3795ZM57.08 43.2845C56.9327 42.7451 56.9142 42.1679 57.0265 41.6168C57.1388 41.0657 57.3775 40.5621 57.7163 40.1616L56.1055 38.1249C54.6496 36.2918 52.9184 34.4995 51.858 32.2931C51.6907 32.4738 51.5573 32.694 51.4665 32.9396C51.3756 33.1852 51.3293 33.4507 51.3306 33.7188C51.3501 34.2715 51.5303 34.7992 51.8408 35.2124C51.8669 35.2596 51.8831 35.3135 51.888 35.3696C51.893 35.4257 51.8864 35.4824 51.869 35.535C51.8516 35.5875 51.8238 35.6343 51.788 35.6715C51.7522 35.7087 51.7094 35.7352 51.6631 35.7487C51.6478 35.7843 51.6258 35.8153 51.5989 35.8395C51.572 35.8636 51.5409 35.8802 51.5078 35.8881C51.4747 35.8959 51.4405 35.8948 51.4079 35.8847C51.3752 35.8747 51.3449 35.8561 51.3192 35.8302C51.2031 35.7387 51.0712 35.6791 50.9332 35.6558C50.7952 35.6325 50.6545 35.6461 50.5215 35.6956C50.3885 35.7451 50.2665 35.8292 50.1645 35.9417C50.0625 36.0543 49.983 36.1925 49.932 36.3461C49.5938 37.2966 50.2931 38.0977 50.7689 38.7359C50.8104 38.7858 50.8389 38.8488 50.8511 38.9174C50.8633 38.986 50.8586 39.0573 50.8377 39.1228C51.0498 39.2722 51.0096 39.7135 50.723 39.6795C50.5557 39.6561 50.386 39.6783 50.2269 39.7443C50.0679 39.8104 49.9237 39.9186 49.8054 40.0607C49.687 40.2028 49.5977 40.3751 49.5441 40.5644C49.4905 40.7536 49.4742 40.9549 49.4963 41.1527C49.5078 41.2245 49.5078 41.2982 49.4963 41.37C51.9678 42.289 54.5069 42.93 57.08 43.2845ZM48.4817 40.8201C48.574 40.8837 48.6434 40.9851 48.6766 41.1052C48.6715 40.6496 48.7919 40.2044 49.0194 39.8369C49.2469 39.4695 49.5693 39.1997 49.9377 39.0685C49.204 38.2674 48.7913 36.8214 49.3645 35.7962C49.5225 35.5264 49.7333 35.3059 49.9788 35.1534C50.2243 35.0009 50.4974 34.921 50.7746 34.9205C50.6284 34.4553 50.589 33.9526 50.6605 33.4636C50.732 32.9745 50.9118 32.5167 51.1816 32.137C39.2071 23.9087 26.9172 16.047 15.3038 7.1195C14.3783 8.49174 13.5933 9.98896 12.9651 11.5799C12.4324 13.2182 12.0369 14.9145 11.7843 16.6445C24.4696 23.5013 36.5989 32.2592 48.4989 40.8201L48.4817 40.8201ZM5.27822 13.0802L5.27822 13.1346C5.12345 10.5955 5.97181 7.43859 6.56223 5.77529C6.99014 4.6754 7.64695 3.72228 8.47105 3.00537C7.02654 2.59124 5.60495 1.60684 4.2063 2.14317C2.80764 2.6795 2.18283 4.50575 1.75292 6.18263C1.13958 8.53163 1.70133 10.3782 3.47258 11.6138C4.1409 11.9873 4.75592 12.4821 5.29541 13.0802L5.27822 13.0802Z" fill="#222221"/>
<path id="Vector_2" d="M60.457 43.5695C59.58 43.5355 58.7374 43.4677 57.8489 43.3794C57.863 43.3102 57.863 43.2381 57.8489 43.1689C57.7224 42.7595 57.684 42.3193 57.737 41.8879C57.7901 41.4565 57.9329 41.0475 58.1527 40.6978C58.9151 41.6482 59.6832 42.619 60.457 43.5695Z" fill="#222221"/>
<path id="Vector_3" d="M57.7168 40.1617C57.378 40.5622 57.1393 41.0658 57.027 41.6169C56.9147 42.168 56.9332 42.7452 57.0805 43.2846C54.5084 42.9412 51.9693 42.3115 49.4968 41.404C49.5083 41.3323 49.5083 41.2586 49.4968 41.1868C49.4747 40.9889 49.4911 40.7877 49.5446 40.5984C49.5982 40.4091 49.6875 40.2369 49.8059 40.0948C49.9242 39.9526 50.0684 39.8444 50.2274 39.7783C50.3865 39.7123 50.5562 39.6901 50.7235 39.7136C51.0101 39.7475 51.0503 39.3062 50.8382 39.1569C50.8591 39.0913 50.8638 39.0201 50.8516 38.9515C50.8394 38.8829 50.8109 38.8199 50.7694 38.7699C50.2936 38.1318 49.5943 37.3306 49.9325 36.3802C49.9835 36.2265 50.063 36.0883 50.165 35.9758C50.267 35.8632 50.389 35.7791 50.522 35.7296C50.655 35.6802 50.7957 35.6666 50.9337 35.6899C51.0717 35.7132 51.2036 35.7727 51.3197 35.8642C51.3454 35.8901 51.3757 35.9088 51.4084 35.9188C51.441 35.9288 51.4752 35.9299 51.5083 35.9221C51.5414 35.9143 51.5725 35.8976 51.5994 35.8735C51.6263 35.8494 51.6483 35.8184 51.6636 35.7827C51.7099 35.7692 51.7527 35.7427 51.7885 35.7056C51.8244 35.6684 51.8521 35.6215 51.8695 35.569C51.8869 35.5165 51.8935 35.4598 51.8885 35.4036C51.8836 35.3475 51.8674 35.2936 51.8413 35.2464C51.5308 34.8332 51.3506 34.3055 51.3311 33.7528C51.3298 33.4847 51.3761 33.2193 51.467 32.9737C51.5578 32.7281 51.6912 32.5078 51.8585 32.3271C52.919 34.5336 54.6501 36.3259 56.1061 38.1589L57.7168 40.1617Z" fill="#E8CFBA"/>
<path id="Vector_4" d="M48.6939 41.1051C48.6606 40.985 48.5912 40.8835 48.499 40.82C36.599 32.259 24.4696 23.5012 11.7728 16.6511C12.0255 14.9212 12.421 13.2249 12.9537 11.5865C13.5819 9.99563 14.3669 8.49841 15.2924 7.12616C26.9058 16.0469 39.1956 23.9086 51.1816 32.1368C50.9158 32.5165 50.7393 32.9726 50.6699 33.4589C50.6004 33.9452 50.6405 34.4446 50.7861 34.9067C50.5089 34.9073 50.2359 34.9872 49.9903 35.1397C49.7448 35.2922 49.534 35.5127 49.376 35.7825C48.8028 36.8077 49.2327 38.2537 49.9492 39.0548C49.5799 39.1879 49.2574 39.4602 49.0308 39.8303C48.8042 40.2004 48.6859 40.648 48.6939 41.1051ZM42.7267 35.0968C43.105 35.3548 43.4661 34.6895 43.1738 34.4179C43.3515 34.5537 43.5292 34.6827 43.7126 34.8049C43.7939 34.8652 43.8922 34.8848 43.9857 34.8593C44.0792 34.8339 44.1604 34.7655 44.2113 34.6691C44.2622 34.5728 44.2788 34.4564 44.2573 34.3457C44.2358 34.2349 44.178 34.1388 44.0967 34.0785C43.3056 33.4811 42.4286 32.9922 41.5917 32.4763C41.5408 32.4394 41.4795 32.4279 41.4215 32.4445C41.3634 32.461 41.3133 32.5042 41.2822 32.5645C41.251 32.6249 41.2413 32.6974 41.2553 32.7661C41.2693 32.8349 41.3057 32.8942 41.3567 32.9311C41.9299 33.4064 42.5031 33.9155 43.0763 34.3636C41.8726 33.6847 40.7032 32.9515 39.4765 32.3609C39.2702 32.259 39.1383 32.6256 39.316 32.7682C40.4281 33.6168 41.5974 34.3161 42.7267 35.0968ZM20.2966 13.9084C20.6692 14.1052 20.8698 13.4263 20.5832 13.1684C19.6269 12.4554 18.6222 11.8378 17.5795 11.3218C17.3216 11.186 17.098 11.573 17.3445 11.7631C18.2751 12.5766 19.2627 13.2943 20.2966 13.9084ZM20.0272 11.7766C20.3367 11.8242 20.503 11.2335 20.2106 11.0977C19.5858 10.7583 18.9094 10.5818 18.2846 10.2084C17.6874 9.82492 17.1129 9.39397 16.5649 8.91847C16.3815 8.76911 16.1694 9.08819 16.3185 9.27828C17.2012 10.412 18.6744 11.6001 20.0272 11.7766Z" fill="#65B1D2"/>
<path id="Vector_5" d="M43.157 34.4248C43.4493 34.6896 43.0882 35.3549 42.7098 35.1037C41.5634 34.323 40.417 33.6237 39.3221 32.7819C39.1444 32.6393 39.2763 32.2727 39.4826 32.3746C40.7093 32.9652 41.8787 33.7324 43.0824 34.3773L43.157 34.4248Z" fill="#222221"/>
<path id="Vector_6" d="M44.0968 34.0854C44.1781 34.1457 44.2359 34.2418 44.2574 34.3526C44.2789 34.4633 44.2624 34.5797 44.2114 34.676C44.1605 34.7724 44.0794 34.8408 43.9858 34.8662C43.8923 34.8917 43.7941 34.8721 43.7127 34.8118C43.5293 34.6896 43.3516 34.5606 43.1739 34.4248L43.0994 34.3705C42.5262 33.9224 41.953 33.4133 41.3797 32.938C41.3288 32.9011 41.2923 32.8418 41.2784 32.773C41.2644 32.7043 41.2741 32.6318 41.3052 32.5714C41.3364 32.5111 41.3865 32.4679 41.4446 32.4514C41.5026 32.4348 41.5638 32.4463 41.6148 32.4832C42.4287 32.9991 43.3058 33.4879 44.0968 34.0854Z" fill="#222221"/>
<path id="Vector_7" d="M11.6762 17.4591C11.5337 17.6663 11.3541 17.8333 11.1504 17.9481C10.9466 18.0628 10.7238 18.1223 10.4982 18.1223C10.2726 18.1223 10.0498 18.0628 9.84608 17.9481C9.64232 17.8333 9.4627 17.6663 9.32025 17.4591C9.05808 17.0773 8.86565 16.6351 8.75514 16.1607C8.64464 15.6862 8.61845 15.1898 8.67825 14.7028C8.7585 13.2364 9.28013 11.8582 9.45782 10.4053C9.48649 10.1474 9.14829 10.093 9.09096 10.3307C8.63239 12.1094 7.77829 14.309 8.07637 16.2439C8.04942 16.224 8.02055 16.2081 7.99039 16.1964C5.09563 15.1305 6.16181 10.5004 6.76943 8.04956C7.37704 5.59874 9.53807 0.961843 12.0774 3.82001C10.8278 4.70258 10.289 7.14662 9.72724 8.57231C9.58393 8.93213 10.0081 9.2512 10.1858 8.90496C10.845 7.51322 11.3323 5.51047 12.5991 4.83157C14.055 4.0101 15.4021 5.30001 16.09 6.86826C16.1202 6.9384 16.1683 6.99544 16.2275 7.03121L16.1817 7.14662C15.9639 7.00405 15.7518 6.87506 15.5397 6.74607C15.5435 6.66554 15.527 6.58549 15.4924 6.51605C15.4578 6.44661 15.4065 6.3909 15.3451 6.356C15.2837 6.3211 15.215 6.30857 15.1476 6.31999C15.0801 6.33142 15.0171 6.36629 14.9665 6.42019C12.6013 9.10145 11.1698 12.7345 10.9539 16.6037C10.9463 16.6982 10.9688 16.7926 11.017 16.8685C11.0011 16.9375 11.0049 17.0108 11.0276 17.077C11.0504 17.1433 11.091 17.1988 11.1431 17.2351C11.3437 17.2283 11.5042 17.3369 11.6762 17.4591Z" fill="#D8D8D8"/>
<path id="Vector_8" d="M20.584 13.1958C20.8878 13.4537 20.67 14.1326 20.2974 13.9358C19.2686 13.312 18.2868 12.5852 17.3625 11.7633C17.116 11.5732 17.3625 11.1862 17.5975 11.322C18.635 11.8477 19.634 12.4745 20.584 13.1958Z" fill="#222221"/>
<path id="Vector_9" d="M20.2287 11.0776C20.521 11.2337 20.3548 11.8244 20.0453 11.7565C18.6925 11.58 17.2193 10.3987 16.3079 9.23778C16.1588 9.04768 16.3709 8.7286 16.5544 8.87796C17.1023 9.35346 17.6768 9.78442 18.274 10.1679C18.9103 10.5616 19.5867 10.7381 20.2287 11.0776Z" fill="#222221"/>
<path id="Vector_10" d="M5.32488 13.1346L5.32488 13.0802C4.79075 12.494 4.18369 12.0086 3.52497 11.641C1.77092 10.3782 1.23209 8.53162 1.80531 6.20978C2.23523 4.5329 2.8371 2.69988 4.25869 2.17034C5.68027 1.6408 7.07893 2.61841 8.52344 3.03254C7.69934 3.74945 7.04253 4.70255 6.61462 5.80244C6.01274 7.43859 5.16437 10.5955 5.32488 13.1346ZM3.93769 10.7313C4.09819 11.03 4.56823 10.8806 4.45358 10.5004C4.09821 9.49518 3.98895 8.39175 4.13831 7.31639C4.14925 7.25397 4.14028 7.18896 4.11313 7.1339C4.08599 7.07885 4.04259 7.03763 3.99131 7.01823C3.94003 6.99883 3.88451 7.00262 3.83544 7.02884C3.78637 7.05506 3.74724 7.10186 3.72559 7.16024C3.54387 7.73868 3.46829 8.35634 3.50387 8.97208C3.53945 9.58782 3.68539 10.1875 3.93195 10.7313L3.93769 10.7313ZM2.68807 9.54998C2.7265 9.61187 2.78249 9.65525 2.84576 9.67217C2.90903 9.6891 2.97534 9.67842 3.03249 9.64209C3.08965 9.60577 3.13382 9.54624 3.1569 9.47444C3.17997 9.40264 3.1804 9.3234 3.15811 9.25126C2.96224 8.75045 2.85698 8.20666 2.84909 7.65481C2.84119 7.10295 2.93083 6.55524 3.11225 6.04685C3.18104 5.84318 2.91162 5.71418 2.81418 5.8907C2.52214 6.43289 2.35615 7.05681 2.333 7.69935C2.30984 8.34189 2.43035 8.98029 2.68234 9.54998L2.68807 9.54998Z" fill="#CFA198"/>
<path id="Vector_11" d="M4.44801 10.48C4.56265 10.8602 4.09261 11.0096 3.93211 10.7108C3.68461 10.1676 3.53768 9.56817 3.50111 8.95242C3.46454 8.33667 3.53917 7.71875 3.72002 7.13983C3.74166 7.08146 3.78079 7.03466 3.82986 7.00843C3.87893 6.98221 3.93446 6.97843 3.98574 6.99783C4.03702 7.01723 4.08041 7.05844 4.10756 7.1135C4.1347 7.16855 4.14367 7.23356 4.13273 7.29598C3.98337 8.37134 4.09263 9.47478 4.44801 10.48Z" fill="#222221"/>
<path id="Vector_12" d="M3.15253 9.25111C3.17482 9.32325 3.1744 9.40249 3.15132 9.47429C3.12825 9.54608 3.08407 9.60562 3.02691 9.64194C2.96976 9.67826 2.90345 9.68895 2.84018 9.67202C2.77691 9.6551 2.72092 9.61172 2.68249 9.54983C2.42966 8.98073 2.30818 8.34265 2.33032 7.70011C2.35246 7.05757 2.51745 6.43335 2.8086 5.89055C2.90605 5.71403 3.17546 5.84303 3.10667 6.0467C2.92525 6.55509 2.83561 7.1028 2.84351 7.65465C2.8514 8.2065 2.95666 8.75029 3.15253 9.25111Z" fill="#222221"/>
</g>
</svg>
