<svg width="125" height="146" viewBox="0 0 125 146" fill="none" xmlns="http://www.w3.org/2000/svg">
<g id="Group 61">
<path id="Vector" d="M74.4326 43.3967C75.248 42.2255 76.0676 41.0725 76.8732 39.8946C76.846 39.972 76.8412 40.0579 76.8596 40.1388C76.8781 40.2197 76.9187 40.291 76.9752 40.3416C77.4352 40.6777 77.9125 40.9794 78.4043 41.2448C78.8929 41.5387 79.366 41.8375 79.8581 42.1107C79.9139 42.1487 79.9801 42.1589 80.0422 42.139C80.1043 42.1191 80.1572 42.0708 80.1893 42.0047C80.2213 41.9387 80.2299 41.8602 80.2131 41.7867C80.1963 41.7131 80.1556 41.6505 80.0998 41.6125C79.6471 41.2582 79.1677 40.932 78.71 40.6282C78.2572 40.275 77.7846 39.9585 77.2956 39.6812C77.2454 39.6528 77.19 39.6401 77.1345 39.6441C77.0791 39.6482 77.0254 39.6689 76.9786 39.7043C78.5751 37.3924 80.1639 35.083 81.731 32.7512C84.0775 34.7409 86.4556 36.652 88.7115 38.7882C89.8708 39.8853 96.9396 45.8745 93.5702 48.0588C93.5449 48.0749 93.5226 48.0968 93.5046 48.1232C93.4866 48.1497 93.4733 48.1801 93.4653 48.2127C93.4574 48.2453 93.455 48.2795 93.4583 48.3132C93.4617 48.347 93.4707 48.3796 93.4848 48.4091C84.9122 58.65 76.5959 69.1808 68.4248 79.8413C60.1436 90.6349 51.5791 101.382 43.8551 112.771C41.5313 110.989 30.939 103.465 31.3976 100.186C31.5089 100.234 31.6301 100.241 31.7446 100.204C31.859 100.167 31.9611 100.09 32.0368 99.9817L35.7074 95.2051C36.7857 96.2288 37.915 97.1749 39.0891 98.0381C39.3812 98.2676 39.7342 97.7142 39.4612 97.459C38.4314 96.4246 37.351 95.463 36.2257 94.5792C37.2079 93.3057 38.1868 92.03 39.1624 90.752C39.18 90.7176 39.2049 90.6894 39.2347 90.6702L42.4689 86.4443C42.7156 86.6779 42.9723 86.8964 43.238 87.0987C43.662 87.472 44.0776 87.8088 44.5233 88.2045C44.7999 88.439 45.1397 87.8996 44.882 87.6395C44.4749 87.2314 44.0698 86.8325 43.657 86.436C43.4447 86.2299 43.222 85.9782 42.9845 85.7703L45.6764 82.2466C45.9433 82.4744 46.2291 82.6766 46.4882 82.9069C46.9765 83.3085 47.4998 83.7185 47.965 84.1276C48.2061 84.3147 48.5065 83.8564 48.2746 83.637C47.8031 83.2006 47.3261 82.7758 46.8469 82.3418C46.6073 82.1249 46.3713 81.8872 46.1219 81.6636L48.4876 78.5574L48.498 78.603C48.9118 78.823 49.3552 78.9551 49.7536 79.18C50.168 79.4498 50.5518 79.7809 50.8957 80.1653C50.9215 80.1949 50.9519 80.2183 50.9853 80.2341C51.0187 80.2498 51.0544 80.2576 51.0903 80.257C51.1263 80.2564 51.1617 80.2474 51.1947 80.2306C51.2277 80.2138 51.2576 80.1894 51.2827 80.1589C51.3077 80.1284 51.3275 80.0923 51.3408 80.0528C51.3541 80.0132 51.3606 79.971 51.3601 79.9284C51.3596 79.8858 51.3521 79.8438 51.3379 79.8047C51.3236 79.7656 51.3031 79.7302 51.2773 79.7006C50.6697 78.8323 49.8518 78.2058 48.934 77.9056L51.9065 74.018C51.9498 74.0757 52.0052 74.1188 52.0672 74.1428C52.874 74.4628 53.6059 75.0031 54.2038 75.72C54.4426 76.0058 54.9045 75.6035 54.6862 75.2622C54.116 74.3585 53.3187 73.6919 52.4088 73.3581C53.2711 72.211 54.1396 71.0913 54.9941 69.9467C55.8882 70.379 56.7173 70.9797 57.4495 71.7254C57.5035 71.7745 57.5708 71.7986 57.6387 71.793C57.7066 71.7875 57.7705 71.7528 57.8183 71.6954C57.8661 71.638 57.8946 71.5619 57.8983 71.4814C57.9021 71.4009 57.8809 71.3216 57.8388 71.2583C57.1845 70.4124 56.3912 69.7337 55.5077 69.2636L58.1134 65.7968C58.9065 66.375 59.7907 66.8457 60.6196 67.3635C60.6815 67.4001 60.7529 67.4072 60.8191 67.3836C60.8853 67.3599 60.9414 67.3071 60.9759 67.236C61.0103 67.165 61.0206 67.081 61.0045 67.0014C60.9884 66.9217 60.9472 66.8522 60.8894 66.8073C60.1221 66.2698 59.3634 65.6611 58.5737 65.1699L61.5542 61.1721C62.5325 61.8378 63.5818 62.3438 64.5701 62.9084C64.8552 63.0717 65.0934 62.5941 64.8195 62.4077C63.9076 61.7795 62.9861 61.0368 62.0467 60.5055C62.8992 59.3518 63.7538 58.2072 64.5656 57.0567C64.5886 57.1249 64.6279 57.1838 64.6787 57.226C65.1118 57.567 65.6174 57.7185 66.0926 58.0264C66.5561 58.3759 66.9925 58.7735 67.3967 59.2143C67.6131 59.4387 68.0049 59.1274 67.8145 58.8359C67.4591 58.2794 67.0328 57.7917 66.5508 57.3904C66.0945 56.9719 65.5647 56.6798 65.0005 56.5358L68.1377 52.1746C68.17 52.2197 68.2093 52.257 68.2537 52.2843C69.1706 52.862 70.0798 53.4422 71.0058 53.9876C71.0677 54.0242 71.1391 54.0313 71.2053 54.0076C71.2716 53.9839 71.3276 53.9312 71.3621 53.8601C71.3966 53.7891 71.4068 53.7052 71.3907 53.6255C71.3747 53.5458 71.3335 53.4764 71.2756 53.4314C70.3975 52.7337 69.5303 52.1205 68.6471 51.4732C69.52 50.264 70.4006 49.0524 71.2693 47.8249C72.2557 48.6514 73.3749 49.2294 74.5575 49.5231C74.9211 49.6319 75.0448 49.0148 74.7037 48.8597C74.1772 48.6171 73.6467 48.3562 73.1309 48.0514C72.6151 47.7467 72.2142 47.366 71.7227 47.1317C72.4609 46.0929 73.2089 45.0607 73.945 44.0128C73.9679 44.1068 74.0187 44.1878 74.088 44.2411C75.0092 44.837 75.9586 45.3698 76.9313 45.8369C77.32 46.0551 77.6537 45.3806 77.2742 45.1301C76.3547 44.4907 75.406 43.912 74.4326 43.3967ZM30.5639 99.2491C29.2026 102.23 32.1103 104.216 33.8368 105.807C36.9836 108.663 40.2801 111.279 43.7064 113.641C43.7683 113.68 43.8383 113.698 43.9085 113.693C43.9559 113.771 44.018 113.833 44.0899 113.877C44.1617 113.92 44.2412 113.943 44.3218 113.943C44.4024 113.943 44.4818 113.92 44.5536 113.877C44.6255 113.833 44.6876 113.77 44.7349 113.693C53.1489 102.974 61.0603 91.6825 69.3639 80.8426C77.6676 70.0026 86.0781 59.3046 94.4425 48.5137C94.4923 48.4459 94.5222 48.3608 94.5277 48.2712C96.3995 47.2023 95.3306 44.2557 94.0826 42.6974C90.4875 38.4173 86.4406 34.7052 82.0425 31.6531C82.0101 31.6176 81.972 31.5902 81.9304 31.5725C81.8888 31.5549 81.8447 31.5475 81.8006 31.5506C81.7565 31.5537 81.7135 31.5674 81.674 31.5908C81.6345 31.6142 81.5994 31.6467 81.5708 31.6866C64.5496 53.8709 48.1743 76.749 31.0902 98.8752C31.0902 98.8752 31.1006 98.9208 31.0431 98.9587C30.9477 98.9419 30.8501 98.9608 30.7642 99.0129C30.6783 99.065 30.6083 99.1476 30.5639 99.2491Z" fill="#222221"/>
<path id="Vector_2" d="M31.4057 100.223C30.9472 103.502 41.5395 111.026 43.8633 112.807C51.5873 101.419 60.1287 90.6789 68.433 79.8778C76.6195 69.2124 84.9358 58.6816 93.493 48.4457C93.4789 48.4161 93.4699 48.3835 93.4665 48.3498C93.4632 48.3161 93.4655 48.2819 93.4735 48.2493C93.4814 48.2166 93.4948 48.1862 93.5128 48.1598C93.5308 48.1334 93.5531 48.1114 93.5784 48.0954C96.9779 45.8623 89.9092 39.8731 88.7498 38.7759C86.4939 36.6397 84.1159 34.7286 81.7694 32.7389C80.2022 35.0708 78.6134 37.3802 77.0169 39.692C77.0638 39.6566 77.1174 39.6359 77.1729 39.6318C77.2284 39.6278 77.2838 39.6405 77.334 39.6689C77.823 39.9463 78.2955 40.2627 78.7483 40.616C79.2102 40.938 79.7162 41.2361 80.1382 41.6002C80.1939 41.6382 80.2347 41.7008 80.2515 41.7744C80.2683 41.848 80.2597 41.9264 80.2276 41.9925C80.1956 42.0585 80.1427 42.1068 80.0806 42.1267C80.0185 42.1466 79.9522 42.1364 79.8964 42.0985C79.4044 41.8253 78.939 41.524 78.4427 41.2325C77.9518 40.97 77.4752 40.6714 77.0156 40.3384C76.9592 40.2879 76.9186 40.2165 76.9001 40.1356C76.8816 40.0547 76.8864 39.9688 76.9137 39.8915C76.108 41.0694 75.2884 42.2223 74.473 43.3936C75.4586 43.9102 76.4189 44.4917 77.3497 45.1353C77.7368 45.3834 77.4037 46.0968 77.0068 45.8421C76.034 45.375 75.0846 44.8422 74.1634 44.2463C74.0941 44.1931 74.0433 44.112 74.0204 44.018C73.2843 45.0659 72.5363 46.0981 71.7982 47.137C72.2917 47.3803 72.7765 47.8027 73.2063 48.0567C73.6361 48.3106 74.2527 48.6223 74.7791 48.865C75.1203 49.0201 74.9581 49.6494 74.6329 49.5283C73.4503 49.2347 72.3312 48.6567 71.3447 47.8302C70.4823 49.085 69.5954 50.2693 68.7226 51.4785C69.6057 52.1257 70.4791 52.7663 71.3511 53.4367C71.4089 53.4816 71.4501 53.551 71.4662 53.6307C71.4822 53.7104 71.472 53.7943 71.4375 53.8654C71.4031 53.9364 71.347 53.9892 71.2808 54.0129C71.2145 54.0366 71.1432 54.0294 71.0813 53.9928C70.1321 53.4548 69.246 52.8672 68.3291 52.2895C68.2848 52.2622 68.2454 52.225 68.2132 52.1798L65.0759 56.541C65.6132 56.6958 66.1161 56.9855 66.5507 57.3904C67.0559 57.7782 67.5058 58.2587 67.8837 58.8138C68.0741 59.1052 67.6823 59.4166 67.4659 59.1922C67.0617 58.7513 66.6253 58.3538 66.1618 58.0043C65.7174 57.6865 65.181 57.5449 64.7478 57.2039C64.6971 57.1617 64.6578 57.1028 64.6348 57.0345C63.7844 58.1974 62.9299 59.342 62.1159 60.4833C63.0713 61.0487 63.9768 61.7574 64.8887 62.3856C65.1626 62.572 64.9244 63.0495 64.6393 62.8863C63.6818 62.3118 62.5898 61.7999 61.6234 61.1499L58.6429 65.1478C59.4326 65.6389 60.1913 66.2477 60.9586 66.7852C61.0164 66.8301 61.0576 66.8995 61.0737 66.9792C61.0897 67.0589 61.0795 67.1429 61.045 67.2139C61.0106 67.2849 60.9545 67.3377 60.8883 67.3614C60.822 67.3851 60.7507 67.3779 60.6888 67.3414C59.8599 66.8236 58.9757 66.3528 58.1826 65.7746L55.5769 69.2415C56.4604 69.7115 57.2536 70.3903 57.908 71.2361C57.9501 71.2994 57.9713 71.3788 57.9675 71.4593C57.9638 71.5398 57.9353 71.6159 57.8875 71.6733C57.8396 71.7307 57.7758 71.7654 57.7079 71.7709C57.6399 71.7764 57.5727 71.7524 57.5187 71.7033C56.7865 70.9576 55.9574 70.3569 55.0633 69.9246C54.2088 71.0692 53.3403 72.1889 52.478 73.3359C53.3879 73.6697 54.1852 74.3363 54.7554 75.2401C54.9737 75.5813 54.5118 75.9836 54.273 75.6979C53.6751 74.981 52.9432 74.4407 52.1364 74.1206C52.0744 74.0967 52.0189 74.0536 51.9757 73.9959L49.0032 77.8835C49.921 78.1836 50.7389 78.8101 51.3465 79.6784C51.3722 79.7081 51.3928 79.7435 51.407 79.7826C51.4213 79.8217 51.4288 79.8637 51.4293 79.9063C51.4298 79.9488 51.4232 79.9911 51.41 80.0306C51.3967 80.0702 51.3769 80.1062 51.3519 80.1367C51.3268 80.1673 51.2969 80.1916 51.2639 80.2085C51.2309 80.2253 51.1954 80.2343 51.1595 80.2349C51.1236 80.2355 51.0879 80.2277 51.0545 80.2119C51.0211 80.1962 50.9907 80.1728 50.9649 80.1431C50.621 79.7588 50.2372 79.4277 49.8228 79.1579C49.4182 78.9056 48.9748 78.7735 48.5672 78.5809L48.5568 78.5353L46.1911 81.6414C46.4405 81.865 46.6765 82.1027 46.9161 82.3197C47.3952 82.7536 47.8723 83.1785 48.3438 83.6149C48.5757 83.8343 48.2753 84.2926 48.0342 84.1054C47.5382 83.7063 47.0226 83.2938 46.5574 82.8847C46.2983 82.6545 46.0125 82.4523 45.7456 82.2244L43.0537 85.7482C43.2912 85.9561 43.5139 86.2078 43.7262 86.4139C44.139 86.8104 44.544 87.2093 44.9512 87.6173C45.2089 87.8775 44.8691 88.4168 44.5925 88.1824C44.1552 87.8231 43.7374 87.4772 43.3072 87.0766C43.0415 86.8742 42.7848 86.6558 42.5381 86.4222L39.3039 90.648C39.3524 90.5936 39.4155 90.561 39.4821 90.5557C39.5488 90.5505 39.615 90.5729 39.6692 90.6192C40.4703 91.3416 41.2176 92.0813 41.9657 92.7522C42.2192 92.9941 41.8907 93.5103 41.6259 93.2916C40.8372 92.6239 40.0219 91.9843 39.2557 91.2703C39.2227 91.2378 39.1958 91.1976 39.1765 91.1521C39.1573 91.1067 39.1462 91.0571 39.1439 91.0063C39.1416 90.9556 39.1483 90.9048 39.1634 90.8572C39.1785 90.8096 39.2017 90.7663 39.2316 90.7299C38.2574 92.0139 37.2785 93.2896 36.2949 94.5571C37.4202 95.4409 38.5006 96.4025 39.5303 97.4369C39.8034 97.6921 39.4504 98.2455 39.1583 98.016C37.9842 97.1527 36.8549 96.2067 35.7765 95.183L32.106 99.9596C32.0336 100.093 31.924 100.193 31.7961 100.241C31.6681 100.289 31.53 100.283 31.4057 100.223ZM43.2204 107.816C43.1559 107.893 43.068 107.938 42.976 107.939C42.884 107.94 42.7955 107.897 42.7298 107.821C42.6642 107.745 42.6269 107.64 42.626 107.531C42.6252 107.423 42.661 107.318 42.7254 107.24C43.3958 106.385 44.1215 105.593 44.8958 104.872C44.9416 104.832 44.9977 104.813 45.0541 104.818C45.1106 104.823 45.1637 104.851 45.2041 104.898C45.2446 104.945 45.2696 105.008 45.2749 105.074C45.2802 105.141 45.2654 105.208 45.233 105.263C44.6207 106.176 43.9477 107.03 43.2204 107.816ZM44.6425 108.76C44.5769 108.825 44.4935 108.858 44.4084 108.853C44.3233 108.849 44.2426 108.807 44.1821 108.736C44.1216 108.665 44.0856 108.57 44.081 108.469C44.0764 108.369 44.1036 108.269 44.1573 108.191C45.2791 106.851 46.3028 105.4 47.2175 103.855C47.2495 103.789 47.3024 103.74 47.3645 103.72C47.4266 103.701 47.4929 103.711 47.5487 103.749C47.6044 103.787 47.6452 103.849 47.662 103.923C47.6788 103.996 47.6702 104.075 47.6381 104.141C46.8952 105.891 45.8787 107.459 44.6425 108.76ZM82.5806 39.3015C82.3531 39.7169 81.7584 39.3199 82.023 38.922L83.1174 37.1623C83.3231 36.8323 83.7885 37.1336 83.589 37.491L82.5806 39.3015ZM83.7171 40.6605C83.4931 41.0552 82.9767 40.7115 83.179 40.2943C83.6668 39.2714 84.3725 38.4178 85.2258 37.8188C85.4633 37.6645 85.7522 38.0614 85.5313 38.2887C84.8358 38.9712 84.2274 39.7692 83.7248 40.658L83.7171 40.6605ZM87.9764 44.5145C87.2796 44.6155 86.5767 44.3956 86.0129 43.9001C85.4492 43.4046 85.0678 42.6715 84.9476 41.8524C84.9161 41.4969 84.9577 41.1376 85.069 40.8054C85.1803 40.4731 85.358 40.1778 85.5868 39.9447C85.6119 39.8855 85.65 39.8354 85.6971 39.7996C85.7442 39.7639 85.7986 39.7438 85.8545 39.7416C86.0625 39.6034 86.2979 39.5339 86.5363 39.5402C86.7747 39.5466 87.0073 39.6286 87.2098 39.7777C87.6545 39.8014 88.086 39.9632 88.4612 40.2469C88.8363 40.5306 89.1419 40.9261 89.3471 41.3939C89.4917 41.6974 89.5703 42.0387 89.5756 42.3871C89.5809 42.7355 89.5128 43.08 89.3776 43.3895C89.2423 43.699 89.0441 43.9636 88.8008 44.1596C88.5575 44.3556 88.2768 44.4767 87.9841 44.512L87.9764 44.5145Z" fill="#A4CED4"/>
<path id="Vector_3" d="M42.7252 107.24C42.6608 107.318 42.625 107.423 42.6259 107.531C42.6267 107.64 42.664 107.745 42.7297 107.821C42.7953 107.897 42.8839 107.94 42.9759 107.939C43.0678 107.938 43.1557 107.893 43.2202 107.816C43.9475 107.03 44.6205 106.176 45.2328 105.263C45.2652 105.208 45.28 105.141 45.2747 105.074C45.2695 105.008 45.2444 104.945 45.204 104.898C45.1635 104.851 45.1104 104.823 45.0539 104.818C44.9975 104.813 44.9414 104.832 44.8956 104.872C44.1213 105.593 43.3956 106.385 42.7252 107.24Z" fill="#222221"/>
<path id="Vector_4" d="M39.1609 90.7429C39.1309 90.7793 39.1077 90.8227 39.0926 90.8703C39.0775 90.9178 39.0709 90.9686 39.0731 91.0193C39.0754 91.0701 39.0865 91.1197 39.1058 91.1652C39.125 91.2106 39.152 91.2508 39.185 91.2833C39.9553 92.0156 40.7665 92.6369 41.5551 93.3046C41.8199 93.5233 42.1484 93.0071 41.8949 92.7652C41.1323 92.0304 40.385 91.2908 39.5984 90.6322C39.5442 90.5859 39.4781 90.5635 39.4114 90.5688C39.3447 90.574 39.2816 90.6066 39.2331 90.661C39.2033 90.6803 39.1784 90.7085 39.1609 90.7429Z" fill="#222221"/>
<path id="Vector_5" d="M44.1572 108.191C44.1035 108.269 44.0763 108.369 44.0809 108.469C44.0855 108.57 44.1215 108.665 44.182 108.736C44.2426 108.807 44.3232 108.849 44.4083 108.853C44.4934 108.858 44.5768 108.825 44.6424 108.76C45.8786 107.459 46.8952 105.891 47.6381 104.141C47.6701 104.075 47.6787 103.996 47.6619 103.923C47.6451 103.849 47.6044 103.787 47.5486 103.749C47.4928 103.711 47.4266 103.7 47.3644 103.72C47.3023 103.74 47.2494 103.788 47.2174 103.855C46.3027 105.4 45.279 106.851 44.1572 108.191Z" fill="#222221"/>
<path id="Vector_6" d="M82.0229 38.922C81.7814 39.3125 82.353 39.7169 82.5805 39.3015L83.5889 37.491C83.7884 37.1335 83.3229 36.8322 83.1173 37.1623L82.0229 38.922Z" fill="#222221"/>
<path id="Vector_7" d="M83.1926 40.3192C82.9902 40.7363 83.5066 41.08 83.7307 40.6854C84.2354 39.7951 84.8465 38.9962 85.5449 38.3136C85.7658 38.0863 85.4769 37.6894 85.2394 37.8437C84.3861 38.4427 83.6804 39.2963 83.1926 40.3192Z" fill="#222221"/>
<path id="Vector_8" d="M84.9551 41.8498C85.0753 42.669 85.4567 43.4021 86.0204 43.8976C86.5842 44.393 87.2871 44.613 87.9839 44.5119C88.2766 44.4766 88.5573 44.3555 88.8006 44.1596C89.0438 43.9636 89.2421 43.6989 89.3774 43.3895C89.5126 43.08 89.5807 42.7355 89.5754 42.3871C89.57 42.0387 89.4915 41.6973 89.3469 41.3939C89.1446 40.9343 88.8455 40.5445 88.4784 40.2624C88.1114 39.9802 87.689 39.8153 87.2523 39.7836C87.0498 39.6345 86.8172 39.5525 86.5788 39.5461C86.3404 39.5398 86.1049 39.6093 85.897 39.7474C85.841 39.7497 85.7867 39.7697 85.7396 39.8055C85.6924 39.8412 85.6543 39.8914 85.6293 39.9506C85.3952 40.1786 85.2115 40.4706 85.094 40.8015C84.9766 41.1324 84.9289 41.4922 84.9551 41.8498ZM86.3722 42.845C86.0773 42.5354 85.8932 42.1042 85.8575 41.6394C85.8342 41.0302 86.2106 40.3616 86.788 40.6467C86.9017 40.7047 87.0299 40.7092 87.1463 40.6593C87.473 40.73 87.7857 40.8722 88.0684 41.0787C88.3114 41.264 88.4969 41.5378 88.5969 41.8589C88.697 42.18 88.7063 42.5309 88.6232 42.8587C88.2062 43.8926 86.9021 43.4291 86.3722 42.845Z" fill="#222221"/>
</g>
</svg>
